<?xml version="1.0" encoding="utf-8"?>
<!-- Generator: Adobe Illustrator 17.0.0, SVG Export Plug-In . SVG Version: 6.00 Build 0)  -->
<!DOCTYPE svg PUBLIC "-//W3C//DTD SVG 1.1//EN" "http://www.w3.org/Graphics/SVG/1.1/DTD/svg11.dtd">
<svg version="1.1" id="Layer_1" xmlns="http://www.w3.org/2000/svg" xmlns:xlink="http://www.w3.org/1999/xlink" x="0px" y="0px"
	 width="307.778px" height="478.056px" viewBox="108.444 0 307.778 478.056" enable-background="new 108.444 0 307.778 478.056"
	 xml:space="preserve">
<g>
	<g>
		<g>
			<polygon fill="#985F35" points="153.009,295.53 153.009,61.32 278.42,61.32 278.42,69.64 161.324,69.634 161.324,295.53 
				161.331,295.53 			"/>
			<path fill="#985F35" d="M153.012,297.609v-2.082h2.077h-2.077V297.609h-2.083V59.238h129.57v12.479L163.4,71.711v223.816h-2.07
				v2.082L153.012,297.609L153.012,297.609z"/>
		</g>
		<path fill="none" d="M275.837,224.3c39.916-5.942,71.173-34.471,73.751-70.959c2.545-36.318-24.148-68.812-62.58-80.441
			C271.862,112.398,259.236,168.237,275.837,224.3z"/>
		<path fill="none" d="M179.573,337.91c2.527,36.172,33.241,64.51,72.68,70.811c12.391-39.648,10.877-74.669-13.819-150.155
			C201.971,271.093,177.085,302.735,179.573,337.91z"/>
		<path fill="#173E34" d="M179.573,337.91c-2.488-35.175,22.397-66.817,58.861-79.345c-0.964-2.973-1.991-6.019-3.031-9.127
			c-0.741,0.03-1.458,0.011-2.193,0.082c-65.019,4.548-115.058,46.281-111.766,93.19c3.29,46.88,58.683,81.213,123.701,76.64
			c1.222-0.089,2.427-0.246,3.637-0.349c1.251-3.477,2.417-6.891,3.471-10.28C212.814,402.42,182.101,374.082,179.573,337.91z"/>
		<path fill="#985F35" d="M295.942,64.939c-1.911-0.138-3.799-0.133-5.696-0.203c-1.094,2.643-2.161,5.383-3.238,8.163
			c38.432,11.628,65.125,44.123,62.58,80.441c-2.578,36.488-33.835,65.017-73.751,70.959c-7.424,1.116-15.127,1.519-23.008,0.964
			c-8.35-0.579-16.304-2.201-23.877-4.529c14.796,6.972,31.783,11.723,50.037,13.581c1.679,0.168,3.336,0.352,5.025,0.455
			c65.011,4.581,120.389-29.736,123.67-76.631C410.995,111.234,360.986,69.51,295.942,64.939z"/>
		<path fill="#00702F" d="M265.301,253.137c5.229-0.368,10.376-0.249,15.406,0.125c-14.068-3.363-29.397-4.73-45.303-3.823
			c1.04,3.108,2.067,6.154,3.031,9.127C246.841,255.69,255.867,253.819,265.301,253.137z"/>
		<path fill="#B2B3B2" d="M262.632,14.868c-22.466,42.06-61.084,135.015-28.313,231.3c0.368,1.126,0.711,2.166,1.084,3.271
			c15.906-0.907,31.235,0.46,45.303,3.823c-5.03-0.374-10.177-0.493-15.406-0.125c-9.434,0.683-18.459,2.554-26.866,5.429
			c24.696,75.486,26.209,110.507,13.819,150.155c-1.055,3.39-2.22,6.804-3.471,10.28c-4.757,13.204-11.225,27.925-18.383,44.442
			l50.241,0.03c29.619-70.459,37.712-112.397-1.651-229.159c-18.254-1.857-35.24-6.609-50.037-13.581
			c7.573,2.328,15.527,3.95,23.877,4.529c7.881,0.555,15.584,0.152,23.008-0.964c-16.601-56.063-3.975-111.901,11.171-151.4
			c1.077-2.78,2.145-5.521,3.238-8.163c11.81-28.504,23.958-46.676,24.256-47.109l0.733-1.042c0.006-0.049,1.113-1.681,1.113-1.681
			L262.632,14.868z"/>
	</g>
	<path fill="#985F35" d="M298.438,414.101h65.374V194.735h12.474v231.849l-81.546,0.006L298.438,414.101z"/>
</g>
</svg>
