<?xml version="1.0" encoding="utf-8"?>
<!-- Generator: Adobe Illustrator 16.0.0, SVG Export Plug-In . SVG Version: 6.00 Build 0)  -->
<!DOCTYPE svg PUBLIC "-//W3C//DTD SVG 1.1//EN" "http://www.w3.org/Graphics/SVG/1.1/DTD/svg11.dtd">
<svg version="1.1" id="Layer_1" xmlns="http://www.w3.org/2000/svg" xmlns:xlink="http://www.w3.org/1999/xlink" x="0px" y="0px"
	 width="531px" height="628px" viewBox="0 0 531 628" enable-background="new 0 0 531 628" xml:space="preserve">
<g>
	<g>
		<path fill="#231F20" d="M270.787,522.178c0-2.545-4.153-7.177-4.153-9.793c0-2.144,5.38-5.307,8.125-6.473
			c0,0-1.911,2.818-1.05,4.529c1.749,3.825,8.02,14.774,8.02,14.774H246.7c0,0,4.439-5.892,4.792-5.892
			c0.335,0,1.507,2.854,3.845,2.854H270.787z M259.622,501.298c1.502,0,2.787,1.094,2.787,2.407s-1.285,2.42-2.787,2.42
			c-1.527,0-2.821-1.106-2.821-2.42S258.095,501.298,259.622,501.298z M259.622,506.821c1.502,0,2.787,1.097,2.787,2.412
			c0,1.292-1.285,2.404-2.787,2.404c-1.527,0-2.821-1.112-2.821-2.404C256.801,507.918,258.095,506.821,259.622,506.821z"/>
		<path fill="#231F20" d="M297.702,525.216h-12.584c0,0,2.991-1.979,2.991-4.552v-21.881c0-1.5-0.918-2.093-2.049-3.209l7.131-5.518
			l0.536,0.84c-1.064,1.413-1.221,2.818-1.221,4.537v21.032c0,4.511-1.812,5.365-2.186,5.712h7.381V525.216z"/>
		<path fill="#231F20" d="M310.984,527.206c-4.442,0-8.904-2.569-11.354-3.715c0,0-0.287,1.725-1.984,1.725h-4.222v-3.038h5.025
			c-1.256-1.399-2.212-1.448-2.212-3.709c0-2.513,7.188-8.344,13.678-11.498c-0.295,0.855-0.695,2.309-0.322,3.271
			c2.145,4.76,6.71,13.364,6.71,13.364C315.014,525.107,313.784,527.206,310.984,527.206z M302.267,516.807
			c0,2.976,4.784,5.371,6.552,5.441c-1.175-2.379-3.338-5.693-4.342-7.691C303.55,514.952,302.267,515.566,302.267,516.807z"/>
		<path fill="#231F20" d="M354.846,522.178h3.695v3.038h-37.268c1.824-2.434,5.615-5.407,5.615-5.407
			c3.926,2.824,8.831,2.824,13.618,2.824c3,0,1.538,0.414,5.788-0.504c-0.46-1.789-2.441-6.562-7.48-6.562h-16.025
			c0.487-0.826,5.442-6.88,6.904-8.441c-0.652,2.041-1.977,4.007-0.536,5.331c0.996,0.804,1.3,0.695,3.336,0.904h10.664
			c4.208,0,4.769,0.538,6.886,1.989C351.152,516.105,353.392,519.52,354.846,522.178z"/>
		<path fill="#231F20" d="M366.127,516.652c0.258,0.295,0.49,0.66,0.718,1.013c0.591,0.804,2.036,2.609,3.804,4.513h6.092v3.038
			h-3.292c1.103,1.086,2.169,2.09,3.054,2.792l-2.228,2.062c-1.766-0.967-4.392-2.71-6.953-4.854h-14.756v-3.038h11.355
			c-1.072-0.993-1.99-2.03-2.813-3.064c-3.584-4.373-7.364-10.123-7.364-11.942c0-2.198,2.64-3.715,6.533-5.718
			c-1.164,2.203-0.682,3.062-0.087,4.502c0.918,2.38,2.367,5.096,3.953,7.694h8.183v-14.257c0-3.06-1.498-2.971-2.687-4.075
			l7.668-5.261v26.596H366.127z M360.938,491.749c1.521,0,2.815,1.107,2.815,2.415s-1.294,2.412-2.815,2.412
			c-1.52,0-2.827-1.104-2.827-2.412S359.418,491.749,360.938,491.749z"/>
		<path fill="#231F20" d="M380.956,495.759l7.689-5.702v30.673c0,1.96-0.325,6.019,4.819,6.019c2.858,0,5.767-2.003,5.854-1.392
			c0.054,0.701-4.581,3.154-7.668,3.154c-1.354,0-2.821-0.438-3.747-0.953c-2.945-1.557-3.634-3.877-3.634-6.828
			c0,0,0-17.623,0-19.23C384.343,500.738,384.037,497.137,380.956,495.759z"/>
		<path fill="#231F20" d="M428.255,524.203H417.71c-3.88,0-7.097-1.172-8.927-2.98c-1.96-1.998-2.226-6.338,0.544-8.556l9.55-7.857
			l0.07,1.814c-0.812,0.904-1.354,1.795-0.872,2.704l6.73,12.043h3.449V524.203z M411.983,491.598c1.413,0,2.621,1.037,2.621,2.261
			c0,1.245-1.208,2.299-2.621,2.299c-1.407,0-2.594-1.054-2.594-2.299C409.39,492.635,410.576,491.598,411.983,491.598z
			 M411.983,496.823c1.413,0,2.621,1.031,2.621,2.282c0,1.234-1.208,2.279-2.621,2.279c-1.407,0-2.594-1.045-2.594-2.279
			C409.39,497.854,410.576,496.823,411.983,496.823z M414.166,518.269c0,1.031,0.975,1.903,2.22,1.903
			c1.257,0,2.231-0.872,2.231-1.903c0-1.051-0.975-1.911-2.231-1.911C415.141,516.357,414.166,517.218,414.166,518.269z"/>
		<path fill="#231F20" d="M423.518,524.203v-2.832h36.388c-2.279-4.905-5.431-5.477-8.469-5.477h-25.201l2.604-2.754
			c3.255-1.538,6.568-3.341,10.088-6.292c8.004-6.75,9.035-10.459,10.392-13.648c1.624,4.378-0.612,9.376-4.013,12.452
			c-5.122,4.676-9.416,6.578-13.009,7.729h25.826c6.66,0,8.409,5.13,10.646,10.821H423.518z"/>
		<path fill="#231F20" d="M484.732,524.203c-1.294,1.779-3.576,3.482-7.54,6.008c-3.208,2.031-10.38,6.555-10.38,6.555
			c0-0.663,0.219-0.883,0.798-1.37c2.237-1.995,12.113-7.05,12.113-10.177c0-1.484-4.613-8.128-5.518-9.517
			c-1.196-1.857,1.462-3.279,6.092-5.902c-0.574,1.722-1.042,1.722-0.347,3.249c0.812,1.789,4.506,6.828,5.658,8.322h3.149v2.832
			H484.732z"/>
		<path fill="#231F20" d="M486.252,521.371c0.874,0,1.859-1.294,5.319-3.717c0,0,0.77,1.369,1.308,2.423
			c1.037,1.668,4.032,1.294,4.032,1.294l-1.863-3.855c-1.085-2.287,1.116-3.205,4.971-5.913l3.953,8.239
			c0.553,1.286,3.26,1.529,3.956,1.529c-0.696-1.494-3.62-7.438-4.936-10.18c-1.032-2.099,3.222-3.85,7.112-6.52
			c-0.472,1.567-0.962,2.096-0.588,3.387c0.758,3.038,8.913,16.204,6.834,16.145h-33.069v-2.832H486.252z M491.363,499.53
			c0-1.237,1.205-2.29,2.6-2.29c1.424,0,2.634,1.053,2.634,2.29c0,1.224-1.21,2.282-2.634,2.282
			C492.568,501.812,491.363,500.754,491.363,499.53z M496.803,491.405c1.424,0,2.607,1.031,2.607,2.279
			c0,1.243-1.184,2.282-2.607,2.282c-1.416,0-2.594-1.039-2.594-2.282C494.209,492.437,495.387,491.405,496.803,491.405z
			 M497.333,499.53c0-1.237,1.202-2.29,2.621-2.29s2.61,1.053,2.61,2.29c0,1.224-1.191,2.282-2.61,2.282
			S497.333,500.754,497.333,499.53z"/>
		<path fill="#231F20" d="M151.283,525.841h-11.967c-4.366,0-7.972-1.351-10.083-3.387c-2.235-2.244-2.532-7.115,0.597-9.625
			l10.845-8.848l0.07,2.05c-0.928,1.004-1.551,2.027-0.983,3.054l7.635,13.526h3.885V525.841z M132.866,489.106
			c1.604,0,2.949,1.175,2.949,2.577c0,1.381-1.345,2.572-2.949,2.572c-1.605,0-2.951-1.191-2.951-2.572
			C129.915,490.281,131.26,489.106,132.866,489.106z M132.866,495.003c1.604,0,2.949,1.181,2.949,2.575s-1.345,2.575-2.949,2.575
			c-1.605,0-2.951-1.181-2.951-2.575S131.26,495.003,132.866,495.003z M135.34,519.132c0,1.17,1.094,2.152,2.507,2.152
			c1.417,0,2.521-0.982,2.521-2.152c0-1.172-1.104-2.144-2.521-2.144C136.434,516.988,135.34,517.96,135.34,519.132z"/>
		<path fill="#231F20" d="M164.39,527.964c-4.685,0-9.365-2.737-11.956-3.964c0,0-0.291,1.841-2.09,1.841h-4.427v-3.229h5.293
			c-1.341-1.483-2.342-1.535-2.342-3.958c0-2.673,7.577-8.889,14.406-12.257c-0.319,0.92-0.746,2.461-0.37,3.465
			c2.28,5.091,7.069,14.258,7.069,14.258C168.63,525.72,167.342,527.964,164.39,527.964z M155.208,516.901
			c0,3.132,5.058,5.71,6.899,5.759c-1.235-2.499-3.497-6.043-4.547-8.185C156.568,514.895,155.208,515.545,155.208,516.901z"/>
		<path fill="#231F20" d="M186.795,525.841h-13.239c0,0,3.158-2.111,3.158-4.819v-23.349c0-1.613-1.003-2.233-2.166-3.417
			l7.521-5.883l0.548,0.883c-1.125,1.508-1.294,3.023-1.294,4.821v22.418c0,4.83-1.914,5.759-2.297,6.116h7.769V525.841z"/>
		<path fill="#231F20" d="M212.04,522.611v3.229h-14.772L195.305,524l-1.858,1.841h-11.76v-3.229h10.514
			c-1.325-1.005-8.373-7.757-8.373-7.757s3.016-2.137,5.244-3.69c2.338-1.708,5.981-4.711,5.981-4.711s3.632,3.003,5.964,4.711
			c2.212,1.554,5.24,3.69,5.24,3.69s-7.026,6.752-8.369,7.757H212.04z M192.397,517.844l2.656,2.688l2.69-2.951
			c0,0-1.224-1.969-2.69-1.969C193.632,515.612,192.397,517.844,192.397,517.844z"/>
		<path fill="#231F20" d="M216.358,525.841h-8.814v-3.229h4.192v-17.658c0.06-3.268-1.615-3.159-2.841-4.329l7.463-5.621V525.841z"
			/>
		<path fill="#231F20" d="M221.074,494.459l8.139-6.086v32.703c0,2.079-0.372,6.406,5.055,6.406c3.008,0,6.085-2.126,6.151-1.5
			c0.059,0.758-4.803,3.384-8.071,3.384c-1.418,0-2.953-0.487-3.928-1.026c-3.084-1.662-3.817-4.109-3.817-7.264
			c0,0,0-18.801,0-20.509C224.654,499.782,224.345,495.918,221.074,494.459z"/>
		<g>
			<path fill="#231F20" d="M24.805,526.082c-0.875-0.457-3.661-0.81-4.99-0.923c-2.013-0.142-3.992,0.382-4.553,1.396
				c0.312,1.097,1.599,6.731,1.644,8.67c0.024,1.47-0.697,5.157-0.918,5.157c-0.1,0-0.165-1.486-0.498-3.406
				c-0.59-3.712-1.42-9.15-1.558-9.7c0.494-1.57,1.262-2.621,1.473-2.933c0.315-0.379,3.505-2.653,6.018-1.546l0.949,0.437
				c0,0-0.181-0.437-0.3-0.545c-1.02-1.308-1.77-2.612-3.196-2.734c-1.072-0.087-2.32,1.352-2.637,1.352
				c-0.593,0,1.809-3.75,4.218-3.75c0.793,0,2.194,2.014,2.92,3.043c0.555,0.782,1.744,2.447,2.3,2.71
				C25.675,523.31,25.147,525.321,24.805,526.082z"/>
			<path fill="#231F20" d="M31.01,526.697l-2.854-2.193l1.668-2.505l2.794,2.117L31.01,526.697z"/>
			<path fill="#231F20" d="M56.18,512.597l-0.146-0.125c0.348,4.135,0.807,8.786,0.807,8.94c0,1.237-0.52,5.285-1.081,5.285
				c-15.538,0,0,0-15.538,0c-2.512,0-4.324-2.126-4.324-4.511c0-2.318,1.293-5.432,1.783-5.432c0.758,0-0.975,3.698-0.354,4.993
				c0.632,1.334,1.599,2.192,3.912,2.192c14.141,0,0,0,14.141,0c0.479,0-0.88-8.417-1.604-12.938
				c-0.594-0.426-0.527-0.935-0.289-1.414l1.232-2.563c0.102-0.225,0.348-0.733,0.525-0.571c0.586,0.347-0.5,1.164,0.272,1.671
				c0.865,0.522,1.241,0.88,2.013,1.308L56.18,512.597z M48.828,513.571c-0.529,0.327-1.818,0.874-2.478,1.952
				c-0.445,1.231,2.365,0.611,2.365,1.689c0,1.115-0.549,1.971-1.911,3.319c-0.554,0.544-3.125,0.228-3.125,0.228
				c0-0.612,3.547-0.927,3.547-1.877c0-0.59-2.262-0.438-2.262-1.595c0-1.183,2.808-5.742,4.662-5.742
				C49.267,512.667,48.828,513.243,48.828,513.571z"/>
			<path fill="#231F20" d="M62.582,526.697l-2.864-2.193l1.667-2.505l2.799,2.117L62.582,526.697z"/>
			<path fill="#231F20" d="M78.782,526.082c-0.875-0.457-3.668-0.81-4.983-0.923c-2.022-0.142-4.006,0.382-4.57,1.396
				c0.319,1.097,1.602,6.731,1.653,8.67c0.027,1.47-0.696,5.157-0.907,5.157c-0.111,0-0.182-1.486-0.5-3.406
				c-0.601-3.712-1.422-9.15-1.561-9.7c0.486-1.57,1.255-2.621,1.462-2.933c0.306-0.379,3.514-2.653,6.018-1.546l0.95,0.437
				c0,0-0.172-0.437-0.283-0.545c-1.048-1.308-1.791-2.612-3.216-2.734c-1.068-0.087-2.315,1.352-2.636,1.352
				c-0.582,0,1.813-3.75,4.214-3.75c0.792,0,2.201,2.014,2.928,3.043c0.557,0.782,1.745,2.447,2.309,2.71
				C79.659,523.31,79.134,525.321,78.782,526.082z"/>
			<path fill="#231F20" d="M85.292,526.697l-2.855-2.193l1.665-2.505l2.794,2.117L85.292,526.697z"/>
			<path fill="#231F20" d="M104.754,526.74c0,0.761-0.829,3.037-1.109,3.552c-1.149,1.949-3.724,4.202-8.699,4.202
				c-3.594,0-5.274-2.621-5.274-5.201c0-2.902,1.967-7.835,2.764-7.835c0.548,0-1.532,3.598-1.532,5.513
				c0,3.819,2.681,4.818,5.114,4.818c0.978,0,7.315-1.229,7.315-3.893c0-2.624-1.784-5.307-2.027-5.816c0,0,0.94-2.398,1.256-3.057
				c0.279,0.469,1.017,1.903,1.426,3.163c0.292,0.761,0.563,1.467,0.988,1.754c1.98,0,0.254,0,0.254,0v2.757
				C105.231,526.697,106.057,526.697,104.754,526.74z"/>
			<path fill="#231F20" d="M115.355,526.632c0,0-2.379,0.645-4.076,0c-0.524-0.192-1.194-0.666-1.302-0.666
				c-0.163,0-0.613,0.474-1.011,0.666c-1.106,0.065-2.629,0.065-4.041,0.065c0-0.731,0-2.757,0-2.757h4.818
				c0,0,0.282,0.217,0.133-2.038c0.088-0.907,1.711-2.41,2.377-2.989c0,0-0.558,2.58-1.014,4.613
				c-0.03,0.252,0.629,0.354,0.804,0.414c1.073,0.176,2.851,0.176,2.851,0.176s-0.23-1.806-0.517-2.883
				c-0.245-0.518,1.496-1.985,1.955-2.827v4.013C116.331,524.696,115.5,526.439,115.355,526.632z M111.653,515.464l-2.785-1.798
				l-0.834,1.648l-2.925-1.849l1.188-2.345l2.969,2.049l0.819-1.729l2.655,1.803L111.653,515.464z M108.726,510.736l-2.845-1.819
				l1.11-2.149l2.885,1.613L108.726,510.736z"/>
		</g>
	</g>
	<g>
		<g>
			<path fill="#231F20" d="M12.441,550.124h11.168c3.868,0,6.808,0.699,8.812,2.091c3.679,2.498,5.51,7.234,5.51,14.208
				c0,5.12-1.167,9.043-3.519,11.759c-2.537,2.948-5.627,4.421-9.265,4.421c-0.342,0-0.855-0.021-1.538-0.067v23.585h3.969v0.942
				H12.441v-0.942h2.781v-55.067h-2.781V550.124z M23.609,581.612c0.813,0.035,1.388,0.064,1.707,0.064
				c1.37,0,2.352-0.371,2.99-1.123c0.592-0.672,0.885-2.236,0.885-4.703v-19.033c0-2.091-0.119-3.374-0.367-3.84
				c-0.505-1.274-1.903-1.925-4.179-1.925h-1.037V581.612z"/>
			<path fill="#231F20" d="M62.943,607.062h-9.666v-3.111c-0.64,0.942-1.297,1.682-1.961,2.207
				c-1.206,0.904-2.697,1.354-4.466,1.354c-2.458,0-4.094-0.867-4.916-2.618c-0.433-0.942-0.645-2.702-0.645-5.285V566.77h-2.209
				v-0.926h9.781v35.601c0.021,1.862,0.085,2.902,0.173,3.121c0.218,0.571,0.591,0.864,1.101,0.864c0.869,0,1.642-0.661,2.275-1.987
				c0.589-1.251,0.866-3.417,0.866-6.501V566.77h-2.214v-0.926h9.662v40.276h2.219V607.062z"/>
			<path fill="#231F20" d="M64.404,549.312h9.777v19.108c0.578-0.944,1.098-1.621,1.566-2.044c0.731-0.666,1.623-1.007,2.735-1.007
				c1.279,0,2.416,0.396,3.399,1.15c0.997,0.761,1.735,1.833,2.221,3.195c1.606,4.445,2.423,10.355,2.423,17.692
				c0,4.7-0.571,8.789-1.703,12.26c-1.247,3.969-2.789,6.382-4.621,7.277c-0.817,0.388-1.703,0.566-2.657,0.566
				c-1.826,0-3.204-0.799-4.11-2.412c-0.683-1.17-1.206-2.746-1.608-4.723l-4.282,6.686h-0.927v-56.824h-2.213V549.312z
				 M78.608,603.551v-32.417c0-2.114-0.119-3.43-0.371-3.95c-0.202-0.428-0.536-0.646-0.976-0.646c-0.734,0-1.362,0.52-1.906,1.578
				c-0.776,1.497-1.175,3.574-1.175,6.232v24.194c0,2.945,0.137,4.89,0.402,5.843c0.396,1.543,1.126,2.312,2.181,2.312
				c0.69,0,1.195-0.26,1.523-0.817C78.499,605.497,78.608,604.709,78.608,603.551z"/>
			<path fill="#231F20" d="M98.719,549.312v56.808h2.211v0.942H89.051v-0.942h2.209v-55.882h-2.209v-0.926H98.719z"/>
			<path fill="#231F20" d="M112.643,565.844v40.276h2.213v0.942h-11.879v-0.942h2.222V566.77h-2.222v-0.926H112.643z
				 M108.845,548.952c1.132,0,2.11,0.422,2.949,1.229c0.798,0.801,1.183,1.781,1.183,2.938c0,1.143-0.384,2.111-1.183,2.883
				c-0.838,0.815-1.821,1.219-2.995,1.219c-1.172,0-2.166-0.403-3-1.219c-0.8-0.771-1.191-1.74-1.191-2.883
				c0-1.156,0.391-2.137,1.191-2.938C106.633,549.374,107.639,548.952,108.845,548.952z"/>
			<path fill="#231F20" d="M135.973,565.844v17.003h-1.044c-1.071-6.122-2.239-10.516-3.536-13.21
				c-1.023-2.223-2.38-3.327-4.018-3.327c-1.397,0-2.11,1.27-2.11,3.847v28.632c0,3.287,0.14,5.296,0.413,6.06
				c0.371,1.091,1.015,1.616,1.923,1.616c1.346,0,2.653-0.91,3.938-2.74c2.264-3.133,3.39-7.61,3.39-13.432v-2.447h1.044v2.548
				c0,5.455-1.083,9.949-3.257,13.467c-1.455,2.447-3.586,3.652-6.406,3.652c-2.932,0-4.988-1.138-6.136-3.409
				c-1.377-2.643-2.192-5.886-2.438-9.73c-0.169-2.696-0.275-5.328-0.275-7.884c0-9.79,1.365-16.099,4.075-18.947
				c1.424-1.44,3.173-2.171,5.21-2.171c1.548,0,2.79,0.436,3.735,1.313c0.284,0.275,0.884,0.941,1.798,2l2.65-2.84H135.973z"/>
			<path fill="#231F20" d="M175.586,550.124v22.242h-1.157c0-2.18-0.612-5.892-1.837-11.16c-1.638-7.231-3.983-10.849-7.005-10.849
				c-2.338,0-3.519,1.676-3.519,5.02c0,2.201,0.558,4.554,1.688,7.05c1.313,2.924,3.199,6.706,5.667,11.328
				c2.863,5.282,4.749,9.073,5.663,11.357c1.494,3.736,2.233,7.086,2.233,10.063c0,3.652-0.973,6.704-2.918,9.154
				c-1.836,2.291-4.218,3.425-7.172,3.425c-2.805,0-5.038-1.158-6.714-3.492l-4.167,2.8h-1.149v-24.107h1.149
				c0.574,6.779,1.754,12.613,3.505,17.52c0.693,1.847,1.612,3.354,2.726,4.473c1.075,1.103,2.194,1.649,3.375,1.649
				c0.969,0,1.821-0.388,2.558-1.141c1.064-1.106,1.596-2.892,1.596-5.377c0-2.693-0.616-5.645-1.868-8.842
				c-0.578-1.503-2.203-4.866-4.861-10.107c-3.799-7.354-6.041-12.051-6.739-14.057c-0.731-2.053-1.094-3.978-1.094-5.757
				c0-3.062,0.872-5.756,2.604-8.09c1.887-2.533,4.26-3.801,7.097-3.801c1.667,0,3.017,0.509,4.01,1.506
				c0.329,0.373,0.827,0.972,1.462,1.818l3.71-2.626H175.586z"/>
			<path fill="#231F20" d="M200.159,590.162c0,4.395-0.445,7.968-1.334,10.74c-0.766,2.258-2.028,3.991-3.763,5.207
				c-1.378,0.937-2.954,1.402-4.728,1.402c-3.727,0-6.41-2.08-8.036-6.249c-1.18-3.003-1.784-7.981-1.784-14.935
				c0-7.928,0.834-13.445,2.532-16.526c1.575-2.959,4.014-4.432,7.288-4.432c2.141,0,3.889,0.596,5.229,1.809
				c2.569,2.307,4.098,6.509,4.596,12.605c0.157,1.923,0.234,4.227,0.262,6.896h-11.989v14.382c0,2.545,0.165,4.069,0.494,4.61
				c0.412,0.612,1.08,0.924,2.025,0.924c1.806,0,3.463-0.861,4.994-2.569c2.075-2.396,3.125-6.994,3.16-13.865H200.159z
				 M188.432,585.743h4.42v-15.511c0-1.413-0.131-2.377-0.406-2.927c-0.337-0.658-0.917-0.996-1.784-0.996
				c-0.84,0-1.467,0.338-1.861,0.996c-0.25,0.487-0.368,1.462-0.368,2.927V585.743z"/>
			<path fill="#231F20" d="M203.105,565.844h9.668v4.277c1.069-3.162,2.737-4.751,5.03-4.751c1.062,0,2.012,0.33,2.837,0.969
				c1.896,1.474,2.84,3.661,2.84,6.544c0,2.288-0.599,3.953-1.782,5.015c-0.59,0.503-1.294,0.755-2.146,0.755
				c-1.007,0-1.829-0.373-2.499-1.129c-0.926-1.01-1.371-2.369-1.371-4.099c0-3.339,1.08-5.618,3.277-6.814
				c-0.429-0.203-0.834-0.301-1.217-0.301c-1.469,0-2.656,0.993-3.563,2.997c-0.948,2.041-1.408,5.185-1.408,9.419v27.395h3.251
				v0.942h-12.92v-0.942h2.212V566.77h-2.212V565.844z"/>
			<path fill="#231F20" d="M223.901,565.844h12.092v0.926h-2.322l4.294,30.768l3.348-25.51c0.179-1.47,0.273-2.475,0.273-2.991
				c0-1.509-0.668-2.267-1.991-2.267h-0.451v-0.926h6.395v0.926h-0.577c-0.742-0.029-1.289,0.304-1.66,1.008
				c-0.244,0.608-0.548,2.188-0.902,4.713l-4.622,34.572h-5.753l-5.939-40.293h-2.187V565.844z"/>
			<path fill="#231F20" d="M255.984,565.844v40.276h2.208v0.942h-11.857v-0.942h2.207V566.77h-2.207v-0.926H255.984z
				 M252.191,548.952c1.143,0,2.125,0.422,2.948,1.229c0.804,0.801,1.199,1.781,1.199,2.938c0,1.143-0.395,2.111-1.199,2.883
				c-0.823,0.815-1.815,1.219-2.997,1.219c-1.164,0-2.159-0.403-2.982-1.219c-0.8-0.771-1.201-1.74-1.201-2.883
				c0-1.156,0.401-2.137,1.201-2.938C249.983,549.374,250.995,548.952,252.191,548.952z"/>
			<path fill="#231F20" d="M279.324,565.844v17.003h-1.04c-1.066-6.122-2.247-10.516-3.525-13.21
				c-1.05-2.223-2.396-3.327-4.039-3.327c-1.402,0-2.096,1.27-2.096,3.847v28.632c0,3.287,0.13,5.296,0.4,6.06
				c0.374,1.091,1.005,1.616,1.928,1.616c1.341,0,2.664-0.91,3.948-2.74c2.247-3.133,3.384-7.61,3.384-13.432v-2.447h1.04v2.548
				c0,5.455-1.089,9.949-3.238,13.467c-1.479,2.447-3.614,3.652-6.428,3.652c-2.923,0-4.975-1.138-6.147-3.409
				c-1.367-2.643-2.179-5.886-2.435-9.73c-0.173-2.696-0.257-5.328-0.257-7.884c0-9.79,1.355-16.099,4.057-18.947
				c1.435-1.44,3.169-2.171,5.218-2.171c1.547,0,2.797,0.436,3.745,1.313c0.284,0.275,0.871,0.941,1.786,2l2.659-2.84H279.324z"/>
			<path fill="#231F20" d="M302.115,590.162c0,4.395-0.441,7.968-1.316,10.74c-0.773,2.258-2.035,3.991-3.779,5.207
				c-1.381,0.937-2.948,1.402-4.729,1.402c-3.718,0-6.409-2.08-8.012-6.249c-1.196-3.003-1.8-7.981-1.8-14.935
				c0-7.928,0.842-13.445,2.531-16.526c1.589-2.959,4.001-4.432,7.28-4.432c2.136,0,3.896,0.596,5.239,1.809
				c2.571,2.307,4.091,6.509,4.586,12.605c0.151,1.923,0.249,4.227,0.271,6.896h-11.983v14.382c0,2.545,0.168,4.069,0.498,4.61
				c0.398,0.612,1.081,0.924,2.015,0.924c1.806,0,3.46-0.861,4.99-2.569c2.073-2.396,3.122-6.994,3.17-13.865H302.115z
				 M290.402,585.743l4.422,0.001v-15.512c0-1.413-0.139-2.377-0.406-2.927c-0.347-0.657-0.939-0.996-1.784-0.996
				c-0.858,0-1.47,0.339-1.885,0.996c-0.222,0.487-0.347,1.462-0.347,2.927V585.743z"/>
			<path fill="#231F20" d="M321.479,565.844v16.881h-1.048c-0.159-5.16-0.831-9.332-2.044-12.492
				c-0.955-2.539-2.125-3.81-3.517-3.81c-0.614,0-1.135,0.236-1.579,0.715c-0.671,0.69-1.012,1.747-1.012,3.176
				c0,2.028,0.682,4.392,2.035,7.086c1.067,2.145,2.778,5.182,5.104,9.113c2.305,3.923,3.458,7.679,3.458,11.271
				c0,3.038-1.086,5.615-3.249,7.732c-1.381,1.335-3.021,1.996-4.917,1.996c-1.749,0-3.362-0.983-4.868-2.962l-2.528,2.513h-0.726
				v-18.405h1.056c0.055,4.665,0.729,8.891,2.004,12.703c1.137,3.327,2.55,5.001,4.262,5.001c0.823,0,1.546-0.398,2.188-1.211
				c0.645-0.871,0.972-2.049,0.972-3.547c0-1.389-0.257-2.742-0.742-4.056c-0.309-0.785-1.15-2.434-2.51-4.919l-2.16-3.91
				c-2.247-4.061-3.671-6.79-4.224-8.209c-0.72-1.919-1.086-3.801-1.086-5.669c0-3.479,1.118-6.113,3.365-7.922
				c1.257-1.023,2.687-1.549,4.303-1.549c2.087,0,3.679,1.007,4.749,3.017l1.981-2.543H321.479z"/>
			<path fill="#231F20" d="M364.121,550.124v23.168h-1.048c-0.436-4.077-1.194-8.499-2.261-13.259
				c-0.72-3.069-1.754-5.585-3.098-7.543c-0.998-1.418-2.128-2.133-3.389-2.133c-1.011,0-1.712,0.504-2.123,1.519
				c-0.279,0.661-0.417,1.928-0.417,3.863v43.009c0,3.443,0.228,5.602,0.683,6.517c0.535,1.042,1.288,1.56,2.273,1.56
				c1.733,0,3.298-1.178,4.728-3.522c2.396-4.002,3.604-9.961,3.604-17.864v-1.668h1.048v1.544c0,7.862-1.126,13.805-3.352,17.847
				c-1.711,3.065-3.953,4.595-6.671,4.595c-3.693,0-6.493-2.201-8.421-6.598c-1.765-4.028-2.631-11.024-2.631-20.97
				c0-6.92,0.246-12.207,0.741-15.854c0.736-5.588,2.372-9.703,4.917-12.321c1.689-1.73,3.449-2.586,5.282-2.586
				c2.157,0,4.031,1.416,5.612,4.248l3.474-3.55H364.121z"/>
			<path fill="#231F20" d="M377.643,565.37c3.779,0,6.416,1.773,7.911,5.307c1.31,3.032,1.979,8.152,1.979,15.356
				c0,8.036-0.793,13.535-2.353,16.48c-1.798,3.349-4.427,4.998-7.846,4.998c-3.699,0-6.417-2.106-8.125-6.327
				c-1.289-3.093-1.937-8.012-1.937-14.783c0-8.458,0.886-14.054,2.659-16.815C371.768,566.775,374.355,565.37,377.643,565.37z
				 M375.07,571.392v30.114c0,2.407,0.26,3.878,0.747,4.411c0.436,0.452,0.964,0.68,1.605,0.68c0.696,0,1.265-0.29,1.687-0.848
				c0.417-0.558,0.629-1.979,0.629-4.243v-30.114c0-2.418-0.271-3.874-0.756-4.408c-0.444-0.446-0.961-0.674-1.56-0.674
				c-0.761,0-1.335,0.278-1.735,0.834C375.275,567.712,375.07,569.117,375.07,571.392z"/>
			<path fill="#231F20" d="M395.853,598.561c1.002,0,1.852,0.436,2.548,1.318c0.695,0.938,1.053,2.018,1.053,3.293
				c0,1.267-0.357,2.336-1.053,3.248c-0.696,0.894-1.562,1.335-2.58,1.335c-1.083,0-1.963-0.441-2.653-1.335
				c-0.71-0.912-1.051-1.981-1.051-3.248c0-1.275,0.341-2.355,1.051-3.293C393.884,598.996,394.797,598.561,395.853,598.561z"/>
		</g>
		<g>
			<path fill="#231F20" d="M411.479,604.883V579.33h2.676v12.641l10.009-12.641h3.615l-8.447,10.355l8.799,15.197h-3.506
				l-7.194-12.863l-3.275,4.016v8.848H411.479z"/>
			<path fill="#231F20" d="M430.714,604.883v-3.561h2.797v3.561H430.714z"/>
			<path fill="#231F20" d="M437.32,596.668l2.498-0.289c0.111,1.28,0.382,2.325,0.826,3.141c0.422,0.822,1.094,1.478,1.99,1.981
				c0.923,0.507,1.963,0.771,3.095,0.771c1.013,0,1.895-0.197,2.675-0.582c0.769-0.393,1.343-0.915,1.717-1.573
				c0.39-0.682,0.582-1.407,0.582-2.182c0-0.802-0.182-1.508-0.55-2.104c-0.357-0.596-0.948-1.103-1.814-1.5
				c-0.522-0.273-1.716-0.683-3.558-1.251c-1.833-0.561-3.119-1.094-3.86-1.592c-0.978-0.645-1.673-1.443-2.163-2.386
				c-0.458-0.945-0.69-2.012-0.69-3.179c0-1.297,0.286-2.518,0.86-3.622c0.574-1.132,1.419-1.987,2.519-2.569
				c1.099-0.585,2.331-0.88,3.685-0.88c1.492,0,2.797,0.306,3.934,0.918c1.153,0.611,2.012,1.505,2.615,2.693
				c0.618,1.178,0.948,2.516,1,4.01l-2.581,0.249c-0.119-1.605-0.587-2.808-1.381-3.608c-0.782-0.812-1.946-1.227-3.476-1.227
				c-1.619,0-2.783,0.373-3.512,1.117c-0.747,0.748-1.092,1.644-1.092,2.705c0,0.924,0.25,1.671,0.759,2.264
				c0.512,0.593,1.847,1.205,4.013,1.825c2.149,0.608,3.622,1.142,4.435,1.63c1.15,0.68,2.017,1.54,2.594,2.596
				c0.547,1.037,0.814,2.253,0.814,3.623c0,1.348-0.3,2.637-0.912,3.839c-0.617,1.188-1.492,2.142-2.621,2.792
				c-1.158,0.668-2.442,1.015-3.86,1.015c-1.836,0-3.339-0.347-4.57-1.018c-1.224-0.669-2.183-1.679-2.887-3.019
				C437.715,599.896,437.342,598.377,437.32,596.668z"/>
			<path fill="#231F20" d="M457.293,604.883v-3.561h2.794v3.561H457.293z"/>
			<path fill="#231F20" d="M479.155,595.889l2.673,0.848c-0.566,2.783-1.558,4.895-3.02,6.354c-1.467,1.463-3.238,2.204-5.328,2.204
				c-2.16,0-3.932-0.561-5.301-1.687c-1.354-1.124-2.389-2.74-3.104-4.885c-0.709-2.125-1.074-4.402-1.074-6.836
				c0-2.672,0.403-4.992,1.221-6.966c0.796-1.985,1.928-3.498,3.414-4.524c1.476-1.029,3.105-1.543,4.882-1.543
				c2.025,0,3.704,0.652,5.093,1.954c1.378,1.308,2.32,3.146,2.872,5.505l-2.637,0.782c-0.455-1.857-1.14-3.203-2.028-4.062
				c-0.896-0.845-2.012-1.264-3.349-1.264c-1.56,0-2.856,0.46-3.896,1.41c-1.036,0.942-1.771,2.19-2.19,3.785
				c-0.425,1.592-0.633,3.219-0.633,4.895c0,2.166,0.243,4.064,0.758,5.688c0.479,1.611,1.262,2.829,2.312,3.637
				c1.05,0.793,2.209,1.186,3.425,1.186c1.497,0,2.759-0.539,3.801-1.636C478.078,599.646,478.781,598.03,479.155,595.889z"/>
			<path fill="#231F20" d="M485.437,604.883v-3.561h2.794v3.561H485.437z"/>
			<path fill="#231F20" d="M507.28,595.889l2.686,0.848c-0.562,2.783-1.56,4.895-3.016,6.354c-1.446,1.463-3.228,2.204-5.328,2.204
				c-2.166,0-3.929-0.561-5.299-1.687c-1.362-1.124-2.407-2.74-3.1-4.885c-0.715-2.125-1.081-4.402-1.081-6.836
				c0-2.672,0.417-4.992,1.211-6.966c0.817-1.985,1.943-3.498,3.428-4.524c1.473-1.029,3.105-1.543,4.887-1.543
				c2.012,0,3.701,0.652,5.07,1.954c1.384,1.308,2.34,3.146,2.881,5.505l-2.631,0.782c-0.475-1.857-1.143-3.203-2.033-4.062
				c-0.892-0.845-2.018-1.264-3.363-1.264c-1.535,0-2.846,0.46-3.891,1.41c-1.018,0.942-1.768,2.19-2.182,3.785
				c-0.423,1.592-0.629,3.219-0.629,4.895c0,2.166,0.244,4.064,0.745,5.688c0.495,1.611,1.275,2.829,2.336,3.637
				c1.064,0.793,2.199,1.186,3.425,1.186c1.471,0,2.749-0.539,3.794-1.636C506.214,599.646,506.912,598.03,507.28,595.889z"/>
			<path fill="#231F20" d="M513.586,604.883v-3.561h2.78v3.561H513.586z"/>
		</g>
	</g>
</g>
<g>
	<g>
		<g>
			<polygon fill="#985F35" points="153.009,295.53 153.009,61.32 278.42,61.32 278.42,69.64 161.324,69.634 161.324,295.53 
				161.331,295.53 153.009,295.53 			"/>
			<path fill="#985F35" d="M153.012,297.609v-2.082h2.077h-2.077V297.609h-2.083V59.238h129.57v12.479L163.4,71.711v223.816h-2.07
				v2.082H153.012L153.012,297.609z"/>
		</g>
		<path fill="none" d="M275.837,224.3c39.916-5.942,71.173-34.471,73.751-70.959c2.545-36.318-24.148-68.812-62.58-80.441
			C271.862,112.398,259.236,168.237,275.837,224.3z"/>
		<path fill="none" d="M179.573,337.91c2.527,36.172,33.241,64.51,72.68,70.811c12.391-39.648,10.877-74.669-13.819-150.155
			C201.971,271.093,177.085,302.735,179.573,337.91z"/>
		<path fill="#173E34" d="M179.573,337.91c-2.488-35.175,22.397-66.817,58.861-79.345c-0.964-2.973-1.991-6.019-3.031-9.127
			c-0.741,0.03-1.458,0.011-2.193,0.082c-65.019,4.548-115.058,46.281-111.766,93.19c3.29,46.88,58.683,81.213,123.701,76.64
			c1.222-0.089,2.427-0.246,3.637-0.349c1.251-3.477,2.417-6.891,3.471-10.28C212.814,402.42,182.101,374.082,179.573,337.91z"/>
		<path fill="#985F35" d="M295.942,64.939c-1.911-0.138-3.799-0.133-5.696-0.203c-1.094,2.643-2.161,5.383-3.238,8.163
			c38.432,11.628,65.125,44.123,62.58,80.441c-2.578,36.488-33.835,65.017-73.751,70.959c-7.424,1.116-15.127,1.519-23.008,0.964
			c-8.35-0.579-16.304-2.201-23.877-4.529c14.796,6.972,31.783,11.723,50.037,13.581c1.679,0.168,3.336,0.352,5.025,0.455
			c65.011,4.581,120.389-29.736,123.67-76.631C410.995,111.234,360.986,69.51,295.942,64.939z"/>
		<path fill="#00702F" d="M265.301,253.137c5.229-0.368,10.376-0.249,15.406,0.125c-14.068-3.363-29.397-4.73-45.303-3.823
			c1.04,3.108,2.067,6.154,3.031,9.127C246.841,255.69,255.867,253.819,265.301,253.137z"/>
		<path fill="#B2B3B2" d="M262.632,14.868c-22.466,42.06-61.084,135.015-28.313,231.3c0.368,1.126,0.711,2.166,1.084,3.271
			c15.906-0.907,31.235,0.46,45.303,3.823c-5.03-0.374-10.177-0.493-15.406-0.125c-9.434,0.683-18.459,2.554-26.866,5.429
			c24.696,75.486,26.209,110.507,13.819,150.155c-1.055,3.39-2.22,6.804-3.471,10.28c-4.757,13.204-11.225,27.925-18.383,44.442
			l50.241,0.03c29.619-70.459,37.712-112.397-1.651-229.159c-18.254-1.857-35.24-6.609-50.037-13.581
			c7.573,2.328,15.527,3.95,23.877,4.529c7.881,0.555,15.584,0.152,23.008-0.964c-16.601-56.063-3.975-111.901,11.171-151.4
			c1.077-2.78,2.145-5.521,3.238-8.163c11.81-28.504,23.958-46.676,24.256-47.109l0.733-1.042c0.006-0.049,1.113-1.681,1.113-1.681
			L262.632,14.868z"/>
	</g>
	<path fill="#985F35" d="M298.438,414.101h65.374V194.735h12.474v231.849l-81.546,0.006L298.438,414.101z"/>
</g>
</svg>
