<!-- Generator: Adobe Illustrator 17.0.0, SVG Export Plug-In  -->
<svg version="1.1"
	 xmlns="http://www.w3.org/2000/svg" xmlns:xlink="http://www.w3.org/1999/xlink" xmlns:a="http://ns.adobe.com/AdobeSVGViewerExtensions/3.0/"
	 x="0px" y="0px" width="4563.742px" height="3696.367px" viewBox="0 0 4563.742 3696.367"
	 enable-background="new 0 0 4563.742 3696.367" xml:space="preserve">
<defs>
</defs>
<g>
	<path fill="#FCFAFB" d="M1859.057,2704.306v388.109c-9.165-12.027-17.312-24.625-24.441-37.73v-350.378
		c0-2.75-0.336-5.509-0.428-8.248c-12.414-376.724-317.149-681.856-694.982-681.856c-381.571,0-695.166,310.356-695.166,691.917
		c0,365.257,284.974,665.328,643.998,690.237c0.387,0.031,0.995,0.051,1.382,0.082c15.591,1.069,31.322,1.599,48.635,1.599v24.563
		c-17.312,0-33.382-0.54-49.289-1.711c-0.387-0.021-0.881-0.051-1.268-0.082c-372.161-25.225-668.462-336.182-668.462-714.688
		c0-395.013,324.808-716.47,719.832-716.47c379.106,0,695.253,296.751,718.675,670.165
		C1858.47,2674.529,1859.057,2689.367,1859.057,2704.306z"/>
</g>
<g>
	<rect x="2099.669" y="635.915" fill="#FCFAFB" width="24.587" height="2006.708"/>
</g>
<g>
	<path fill="#FCFAFB" d="M1961.911,3004.805v118.955c-11.202-3.605-22.404-7.791-33.606-12.516v-106.439
		c0-127.591-85.232-241.912-211.692-318.401c-3.371-2.037-6.846-4.053-10.278-6.039c-13.086-7.576-29.269-14.847-43.404-21.569
		c-44.472-21.355-94.5-38.545-146.416-50.389c-11.304-2.668-23.38-8.962-34.826-10.988c-45.663-8.432-94.033-16.752-143.261-16.752
		h-327.221c-10.56,0-20.968,3.727-31.233,3.412c-31.081-1.182-61.57-2.088-91.317-6.467c-13.84-2.138-27.374-3.498-40.908-6.278
		c-28.555-5.764-56.224-12.641-82.844-21.175c-11.457-3.849-23.326-7.552-34.477-11.819
		c-190.23-72.385-320.504-215.737-320.504-380.793V768.998l33.606-16.294v1404.843c0,150.962,115.915,283.034,286.664,353.169
		c11.151,4.593,22.788,8.86,34.388,12.923c26.477,9.176,54.298,16.976,83.005,23.168c13.381,2.984,27.154,5.55,40.984,7.689
		c29.604,4.695,60.284,3.849,91.365,5.031c10.408,0.428,20.863-3.3,31.271-3.3h333.321c46.997,0,92.661,8.422,136.532,15.999
		c11.599,1.925,22.903,6.135,34.207,8.59c51.611,11.1,100.248,27.992,145.168,47.962c13.982,6.192,32.618,13.299,45.857,20.346
		c6.151,3.238,12.022,6.548,18.01,9.949C1866.475,2739.817,1961.911,2865.075,1961.911,3004.805z"/>
</g>
<g>
	<path fill="#FCFAFB" d="M3847.92,874.908v1240.469c0,165.046-130.452,308.391-320.683,380.776
		c-11.161,4.267-23.229,7.964-34.685,11.813c-26.62,8.534-54.274,15.398-82.839,21.162c-13.534,2.78-27.065,4.114-40.895,6.253
		c-29.746,4.379-60.235,5.041-91.326,6.222c-10.255,0.316-20.671-3.707-31.232-3.707h-327.21c-49.238,0-97.6,8.615-143.253,17.047
		c-11.457,2.027-23.524,8.519-34.828,11.187c-51.906,11.854-101.928,29.082-146.4,50.437c-14.125,6.731-30.276,14.016-43.362,21.593
		c-29.716,17.2-57.222,36.459-82.111,57.458c-85.736,72.344-139.556,165.486-139.556,267.006v230.945
		c-11.202,6.202-22.404,11.833-34.625,16.864v-247.808c0-111.704,61.25-214.172,158.411-292.046
		c29.492-23.626,62.367-44.991,97.796-63.658c13.229-7.047,31.907-14.176,45.879-20.367c44.92-19.97,93.573-36.906,145.184-48.006
		c11.304-2.454,22.615-6.874,34.215-8.799c43.881-7.577,89.552-16.294,136.55-16.294h333.31c10.408,0,20.856,4.023,31.274,3.595
		c31.081-1.181,61.754-0.102,91.347-4.797c13.839-2.138,27.587-4.664,40.969-7.658c28.708-6.192,56.509-13.967,82.987-23.153
		c11.599-4.053,22.959-8.323,34.11-12.915c170.749-70.135,286.348-202.189,286.348-353.151V874.908H3847.92z"/>
</g>
<g>
	<g>
		<path fill="#FCFAFB" d="M3162.562,1369.832v659.584c0,151.39-125.625,266.109-277.005,266.109h-194.945
			c-27.231,0-53.495,8.722-77.936,17.154c-8.432,2.78-16.548,8.21-24.563,11.948c-39.716,18.575-73.556,48.674-97.997,84.653
			c-5.346,7.791-9.471,16.542-13.85,24.974c-17.516,33.423-26.559,71.961-26.559,112.206v538.297
			c-12.22,17.394-25.459,33.667-40.734,48.627V2546.46c0-39.818,13.448-77.62,28.927-111.674
			c3.737-8.432,10.466-16.548,15.161-24.451c30.001-51.774,77.883-92.773,133.832-115.615c8.004-3.31,16.736-7.979,25.168-10.433
			c24.665-7.475,51.432-13.203,78.551-13.203h194.945c135.157,0,252.564-106.511,252.564-241.668v-659.584H3162.562z"/>
	</g>
	<path fill="#FCFAFB" d="M3197.229,1359.484c0,27.554-22.328,49.892-49.893,49.892c-27.564,0-49.901-22.338-49.901-49.892
		c0-27.565,22.337-49.911,49.901-49.911C3174.901,1309.573,3197.229,1331.919,3197.229,1359.484z"/>
</g>
<g>
	<g>
		<path fill="#FCFAFB" d="M4127.445,3050.84l-582.67-310.022c-133.649-71.111-293.554-13.891-364.66,119.75l-91.57,172.101
			c-12.791,24.04-33.017,43.028-51.942,60.644c-6.415,6.138-15.116,10.702-22.18,16.022
			c-35.054,26.337-77.569,42.048-120.812,46.725c-9.389,1.061-19.075,0.578-28.576,0.484
			c-37.734-0.236-76.027-10.368-111.557-29.272l-475.217-252.849c-21.096,2.618-41.681,6.661-62.063,13.12l518.145,275.69
			c35.152,18.703,74.84,24.588,112.175,26.919c9.199,0.661,19.525-1.467,28.707-1.899c59.799-2.166,118.485-25.179,164.93-63.842
			c6.682-5.512,15.095-10.926,21.222-17.217c18.184-18.263,36.004-39.102,48.743-63.043l91.57-172.101
			c63.486-119.319,212.284-173.139,331.603-109.653l582.67,310.022L4127.445,3050.84z"/>
	</g>
	<path fill="#FCFAFB" d="M4152.485,3024.894c-24.325-12.943-54.533-3.724-67.481,20.611c-12.948,24.334-3.719,54.545,20.605,67.488
		c24.335,12.948,54.554,3.725,67.501-20.609C4186.059,3068.049,4176.819,3037.841,4152.485,3024.894z"/>
</g>
<g>
	<g>
		<path fill="#FCFAFB" d="M1913.03,2051.504v1099.212c-9.165-7.424-17.312-15.235-24.441-23.422V2051.504
			c0-97.569-57.39-181.92-140.672-220.241c-7.892-3.737-15.828-6.945-24.158-9.715c-20.714-6.945-42.671-6.777-65.411-7.745
			c-3.738-0.214-7.323,4.109-11.061,4.109h-194.945c-12.383,0-24.665-5.28-36.62-6.991c-13.453-1.711-32.063-6.698-44.772-10.436
			c-114.657-32.883-204.38-140.898-204.38-266.015v-643.27h33.606v643.27c0,108.782,74.677,201.239,172.898,233.165
			c12.597,4.155,27.46,10.072,40.913,12.098c11.956,1.813,25.861,5.591,38.357,5.591h194.945c3.737,0,7.475-2.709,11.212-2.597
			c22.628,0.957,44.625,3.284,65.542,9.476c8.33,2.454,16.548,4.529,24.451,7.839c84.983,34.054,145.687,109.615,162.877,201.747
			C1914.466,2018.022,1913.03,2034.427,1913.03,2051.504z"/>
	</g>
	<path fill="#FCFAFB" d="M1141.703,879.778c0,27.555,22.337,49.892,49.891,49.892c27.584,0,49.912-22.337,49.912-49.892
		c0-27.565-22.328-49.911-49.912-49.911C1164.04,829.867,1141.703,852.214,1141.703,879.778z"/>
</g>
<path fill="#FCFAFB" d="M2516.247,2875.177c0,78.007-24.502,150.29-66.235,209.579c-12.23,17.394-25.948,33.667-40.969,48.627
	c-23.575,23.514-50.358,43.81-79.626,60.186c-11.07,6.202-22.496,11.833-34.248,16.864c-44.044,18.891-92.569,29.349-143.538,29.349
	c-37.547,0-73.771-5.672-107.855-16.222c-11.681-3.605-23.117-7.791-34.258-12.516c-35.439-15.01-68.016-35.469-96.673-60.328
	c-8.565-7.424-16.772-15.235-24.594-23.422c-10.53-10.988-20.367-22.638-29.461-34.879c-8.941-12.027-17.159-24.625-24.583-37.73
	c-30.042-52.996-47.191-114.25-47.191-179.507c0-30.683,3.798-60.501,10.937-88.974c2.322-9.267,5-18.381,8.015-27.343
	c7.383-21.946,16.793-42.955,28.015-62.802c7.098-12.567,14.919-24.665,23.412-36.244c9.481-12.923,19.787-25.204,30.856-36.763
	c7.821-8.188,16.029-15.999,24.594-23.422c63.974-55.48,147.459-89.066,238.786-89.066c100.482,0,191.463,40.653,257.412,106.399
	c15.021,14.96,28.738,31.233,40.969,48.627c1.161,1.65,2.312,3.32,3.442,4.99c5.53,8.127,10.723,16.477,15.581,25.052
	C2499.088,2748.625,2516.247,2809.9,2516.247,2875.177z"/>
<path fill="#FCFAFB" d="M851.348,425.674c0,91.07-28.605,175.458-77.326,244.676c-14.279,20.307-30.293,39.305-47.83,56.77
	c-27.523,27.451-58.791,51.146-92.96,70.264c-12.923,7.24-26.263,13.815-39.982,19.688c-51.42,22.054-108.071,34.264-167.576,34.264
	c-43.835,0-86.124-6.622-125.916-18.939c-13.637-4.209-26.988-9.095-39.995-14.612c-41.374-17.524-79.407-41.41-112.862-70.43
	c-9.999-8.667-19.581-17.786-28.712-27.345c-12.293-12.828-23.778-26.429-34.395-40.72c-10.439-14.041-20.033-28.748-28.7-44.049
	C20.021,573.371,0,501.859,0,425.674c0-35.821,4.435-70.633,12.769-103.874c2.711-10.819,5.838-21.46,9.357-31.922
	c8.619-25.621,19.605-50.148,32.707-73.32c8.287-14.671,17.417-28.795,27.333-42.313c11.068-15.087,23.1-29.425,36.023-42.919
	c9.131-9.559,18.713-18.678,28.712-27.345C221.587,39.21,319.054,0,425.674,0c117.309,0,223.525,47.461,300.518,124.217
	c17.536,17.465,33.551,36.463,47.83,56.77c1.355,1.926,2.699,3.876,4.018,5.826c6.456,9.487,12.519,19.236,18.19,29.247
	C831.315,277.929,851.348,349.466,851.348,425.674z"/>
<path fill="#FCFAFB" d="M4338.603,605.234c0,101.319-31.824,195.204-86.029,272.212c-15.886,22.592-33.702,43.729-53.212,63.159
	c-30.621,30.541-65.408,56.903-103.422,78.172c-14.378,8.055-29.219,15.37-44.482,21.904
	c-57.207,24.536-120.233,38.12-186.435,38.12c-48.768,0-95.817-7.367-140.087-21.07c-15.172-4.682-30.026-10.119-44.496-16.256
	c-46.03-19.497-88.343-46.07-125.564-78.357c-11.124-9.643-21.785-19.788-31.943-30.422c-13.677-14.272-26.454-29.404-38.266-45.303
	c-11.613-15.621-22.287-31.983-31.93-49.006c-39.02-68.833-61.294-148.394-61.294-233.152c0-39.853,4.934-78.581,14.206-115.564
	c3.016-12.037,6.494-23.875,10.41-35.515c9.59-28.504,21.811-55.791,36.387-81.571c9.219-16.322,19.378-32.036,30.409-47.075
	c12.314-16.785,25.7-32.737,40.077-47.749c10.159-10.635,20.819-20.78,31.943-30.422c83.092-72.061,191.527-115.684,310.146-115.684
	c130.511,0,248.681,52.802,334.339,138.196c19.51,19.43,37.326,40.567,53.212,63.159c1.508,2.143,3.002,4.312,4.471,6.481
	c7.182,10.555,13.928,21.401,20.237,32.538C4316.314,440.862,4338.603,520.449,4338.603,605.234z"/>
<path fill="#FCFAFB" d="M3501.994,1310.431c0,74.149-23.29,142.858-62.959,199.215c-11.626,16.533-24.665,32.002-38.943,46.222
	c-22.409,22.351-47.868,41.643-75.688,57.209c-10.522,5.895-21.383,11.248-32.554,16.03c-41.866,17.957-87.991,27.898-136.44,27.898
	c-35.69,0-70.122-5.392-102.521-15.42c-11.103-3.427-21.974-7.405-32.564-11.897c-33.687-14.268-64.653-33.715-91.892-57.344
	c-8.141-7.057-15.943-14.481-23.377-22.264c-10.009-10.445-19.36-21.519-28.004-33.154c-8.499-11.432-16.311-23.406-23.367-35.864
	c-28.556-50.375-44.857-108.6-44.857-170.63c0-29.166,3.611-57.509,10.396-84.574c2.207-8.809,4.753-17.473,7.618-25.991
	c7.018-20.861,15.962-40.83,26.63-59.697c6.747-11.945,14.181-23.445,22.255-34.451c9.012-12.284,18.808-23.958,29.33-34.945
	c7.435-7.783,15.236-15.208,23.377-22.264c60.81-52.737,140.167-84.662,226.977-84.662c95.513,0,181.994,38.643,244.682,101.137
	c14.278,14.22,27.317,29.688,38.943,46.222c1.104,1.568,2.198,3.155,3.272,4.743c5.256,7.725,10.193,15.662,14.811,23.813
	C3485.683,1190.138,3501.994,1248.383,3501.994,1310.431z"/>
<path fill="#FCFAFB" d="M4563.742,3057.465c0,82.271-25.841,158.506-69.855,221.037c-12.899,18.344-27.366,35.508-43.208,51.285
	c-24.864,24.799-53.111,46.205-83.979,63.476c-11.675,6.541-23.725,12.48-36.12,17.786c-46.452,19.923-97.63,30.954-151.385,30.954
	c-39.6,0-77.803-5.982-113.751-17.109c-12.319-3.802-24.381-8.216-36.131-13.2c-37.376-15.831-71.735-37.409-101.958-63.626
	c-9.033-7.83-17.689-16.067-25.938-24.703c-11.105-11.589-21.481-23.876-31.072-36.786c-9.43-12.684-18.097-25.97-25.927-39.793
	c-31.684-55.893-49.771-120.496-49.771-189.32c0-32.361,4.006-63.808,11.535-93.838c2.449-9.774,5.273-19.386,8.453-28.838
	c7.787-23.146,17.711-45.303,29.547-66.236c7.486-13.254,15.735-26.013,24.692-38.225c9.999-13.629,20.868-26.582,32.543-38.772
	c8.249-8.635,16.905-16.873,25.938-24.703c67.471-58.514,155.521-93.936,251.84-93.936c105.975,0,201.93,42.876,271.484,112.216
	c15.842,15.778,30.31,32.941,43.208,51.285c1.224,1.74,2.438,3.501,3.63,5.263c5.832,8.571,11.31,17.378,16.433,26.421
	C4545.645,2923.994,4563.742,2988.619,4563.742,3057.465z"/>
<path fill="#FCFAFB" d="M1581.281,984.37c0,75.194-23.618,144.871-63.846,202.022c-11.79,16.766-25.012,32.453-39.491,46.873
	c-22.725,22.666-48.542,42.23-76.755,58.015c-10.67,5.978-21.684,11.407-33.012,16.256c-42.456,18.21-89.231,28.291-138.362,28.291
	c-36.193,0-71.11-5.468-103.966-15.637c-11.26-3.475-22.283-7.51-33.023-12.065c-34.161-14.469-65.564-34.191-93.187-58.152
	c-8.256-7.156-16.168-14.685-23.707-22.578c-10.15-10.592-19.633-21.822-28.399-33.621c-8.619-11.593-16.541-23.736-23.697-36.37
	c-28.959-51.085-45.489-110.13-45.489-173.034c0-29.577,3.661-58.319,10.543-85.766c2.238-8.933,4.82-17.719,7.726-26.357
	c7.117-21.154,16.187-41.406,27.005-60.538c6.842-12.114,14.381-23.776,22.568-34.937c9.139-12.457,19.073-24.296,29.744-35.437
	c7.539-7.892,15.451-15.422,23.707-22.578c61.667-53.48,142.142-85.854,230.175-85.854c96.859,0,184.559,39.187,248.13,102.562
	c14.479,14.42,27.702,30.107,39.491,46.873c1.119,1.59,2.228,3.2,3.318,4.81c5.33,7.834,10.337,15.883,15.019,24.148
	C1564.741,862.382,1581.281,921.447,1581.281,984.37z"/>
<path fill="#FCFAFB" d="M1193.244,3287.194c0,87.542-27.497,168.662-74.331,235.198c-13.726,19.52-29.12,37.783-45.977,54.571
	c-26.457,26.388-56.514,49.165-89.359,67.542c-12.423,6.96-25.245,13.28-38.434,18.925c-49.428,21.2-103.885,32.937-161.084,32.937
	c-42.137,0-82.788-6.366-121.039-18.206c-13.109-4.046-25.943-8.743-38.445-14.046c-39.771-16.845-76.331-39.805-108.49-67.702
	c-9.612-8.332-18.823-17.097-27.6-26.285c-11.817-12.332-22.857-25.406-33.062-39.143c-10.034-13.497-19.257-27.634-27.588-42.343
	c-33.714-59.474-52.96-128.216-52.96-201.45c0-34.434,4.263-67.896,12.274-99.851c2.606-10.4,5.611-20.628,8.994-30.685
	c8.286-24.629,18.845-48.205,31.44-70.479c7.966-14.103,16.743-27.68,26.274-40.674c10.64-14.503,22.205-28.285,34.628-41.257
	c8.777-9.188,17.988-17.954,27.6-26.286c71.794-62.262,165.484-99.954,267.975-99.954c112.765,0,214.867,45.623,288.878,119.405
	c16.857,16.788,32.251,35.051,45.977,54.571c1.303,1.851,2.594,3.725,3.863,5.6c6.206,9.12,12.034,18.491,17.486,28.115
	C1173.987,3145.172,1193.244,3213.937,1193.244,3287.194z"/>
<path fill="#FCFAFB" d="M2470.236,520.21c0,76.775-24.115,147.917-65.188,206.27c-12.038,17.119-25.538,33.136-40.322,47.859
	c-23.203,23.143-49.563,43.118-78.369,59.235c-10.895,6.104-22.14,11.646-33.707,16.598
	c-43.349,18.593-91.107,28.886-141.272,28.886c-36.954,0-72.605-5.583-106.152-15.966c-11.496-3.548-22.752-7.668-33.717-12.318
	c-34.879-14.774-66.942-34.91-95.147-59.375c-8.429-7.307-16.508-14.994-24.205-23.052c-10.363-10.815-20.046-22.281-28.996-34.328
	c-8.8-11.837-16.888-24.236-24.195-37.135c-29.568-52.159-46.446-112.446-46.446-176.673c0-30.199,3.739-59.545,10.765-87.569
	c2.285-9.121,4.921-18.091,7.888-26.911c7.267-21.599,16.528-42.276,27.573-61.811c6.986-12.368,14.684-24.276,23.043-35.671
	c9.331-12.719,19.474-24.807,30.369-36.182c7.698-8.059,15.776-15.746,24.205-23.053c62.964-54.604,145.131-87.66,235.015-87.66
	c98.895,0,188.439,40.011,253.347,104.719c14.784,14.723,28.284,30.74,40.322,47.859c1.142,1.624,2.275,3.267,3.387,4.911
	c5.442,7.998,10.554,16.217,15.335,24.656C2453.347,395.656,2470.236,455.964,2470.236,520.21z"/>
<path fill="#F5B400" d="M538.948,439.263h81.566c40.673,0,73.914,33.147,73.914,73.82v4.949c0,40.673-33.242,74.085-73.914,74.085
	h-26.399l16.557,43.797l-63.081-43.797h-8.643c-40.673,0-73.915-33.412-73.915-74.085v-4.949
	C465.034,472.41,498.275,439.263,538.948,439.263z"/>
<g>
	<g>
		<g>
			<path fill="#EB5A49" d="M442.549,507.632c0-11.504,2.272-22.683,6.752-33.224c4.319-10.161,10.494-19.291,18.352-27.136
				c7.855-7.841,16.996-14.002,27.167-18.311c9.75-4.13,20.041-6.376,30.628-6.692v-4.46c0-63.143-51.609-114.593-114.752-114.593
				H284.071c-63.143,0-114.752,51.451-114.752,114.593v7.684c0,63.143,51.609,114.84,114.752,114.84h40.983l-25.704,67.993
				l97.93-67.993h13.418c12.124,0,23.822-1.908,34.813-5.435c-1.967-7.242-2.961-14.71-2.961-22.317V507.632z"/>
		</g>
	</g>
</g>
<circle fill="#F5B400" cx="258.085" cy="417.111" r="22.784"/>
<circle fill="#F5B400" cx="338.299" cy="417.111" r="22.784"/>
<circle fill="#F5B400" cx="418.513" cy="417.111" r="22.784"/>
<path fill="#DCB99D" d="M3992.571,598.372l-52.114-19.237c-39.024-12.843-30.626-35.291-30.626-35.291h-40.118h-0.63h-40.118
	c0,0,8.397,22.447-30.626,35.291l-52.114,19.251l123.173-1.307L3992.571,598.372z"/>
<path fill="#DCB99D" d="M3764.396,380.301c0.553,16.014-2.718,29.973-10.991,30.259c-8.273,0.286-14.268-12.504-14.821-28.518
	c-0.553-16.014,5.8-29.23,14.073-29.516C3760.93,352.24,3763.843,364.288,3764.396,380.301z"/>
<path fill="#EED3B7" d="M3974.653,377.083c-0.553,16.014,2.718,29.973,10.991,30.259c8.273,0.286,14.268-12.504,14.821-28.518
	c0.553-16.014-5.8-29.23-14.073-29.516C3978.118,349.023,3975.206,361.07,3974.653,377.083z"/>
<path fill="#EED3B7" d="M3981.2,388.85c0,91.009-50.344,164.787-112.447,164.787c-62.103,0-112.447-73.778-112.447-164.787
	s50.344-168.574,112.447-168.574C3930.856,220.276,3981.2,297.841,3981.2,388.85z"/>
<path fill="#DCB99D" d="M3869.756,220.276v333.361c-62.384,0.03-113.449-71.987-113.449-162.601
	C3756.306,298.475,3803.646,221.874,3869.756,220.276z"/>
<path fill="#72583B" d="M3745.282,362.108c-1.937-22.721-3.817-57.35,8.315-91.951c7.69-21.933,18.075-52.138,39.515-61.11
	c26.587-11.125,8.108,6.977,63.543-3.96c23.698-4.675,45.738-16.563,84.096-5.657c0,0,37.693,15.304,48.862,100.916
	c0.016,0.125,0.036,0.247,0.059,0.371c0.435,2.345,4.975,27.803,3.204,59.493c-0.309,5.529-5.686,32.2-10.146,35.481
	c-6.891,5.07-6.976-0.991-7.614-1.278c-2.297-1.034,3.001-32.451,2.656-34.946c-1.986-14.344-12.141-59.685-35.549-71.005
	c-0.131-0.064-14.684-4.939-38.791,6.78c-46.524,22.616-68.337,2.762-74.387,1.035c-0.404-0.115-7.459-4.257-7.837-4.44
	c-4.56-2.2-31.252-13.224-44.555,11.384c-0.143,0.264-0.297,0.52-0.47,0.765c-1.764,2.493-13.624,19.518-17.952,58.308
	c-0.258,2.313,5.138,30.255,4.525,33.06c-0.009,0.043-6.845,3.395-7.919-0.99C3754.557,393.23,3746.309,374.153,3745.282,362.108z"
	/>
<rect x="3746.225" y="598.386" fill="#F4F4F4" width="257.305" height="196.242"/>
<path fill="#0E3757" d="M3884.79,621.742c-0.682,1.327-3.593,2.324-6.55,2.324h-19.634c-2.957,0-5.867-0.997-6.55-2.324
	l-11.236-21.848c-2.186-4.25,0.801-8.224,7.005-8.224h41.194c6.205,0,9.191,3.974,7.005,8.224L3884.79,621.742z"/>
<path fill="#D1AD93" d="M3869.087,554.94l-59.654,49.238l-53.686-20.398l76.705-14.494l-5.864-12.212c0,0,4.58-3.089,2.717-12.058
	C3829.304,545.016,3847.364,555.022,3869.087,554.94z"/>
<path fill="#DBDCDD" d="M3829.518,551.913c0.458,0.084,39.703,39.757,39.703,39.757l-59.635,34.313l-13.704-50.646L3829.518,551.913
	z"/>
<path fill="#DBDCDD" d="M3909.277,551.913c-0.458,0.084-40.323,39.757-40.323,39.757l60.256,34.313l12.432-50.7L3909.277,551.913z"
	/>
<rect x="3974.243" y="400.223" transform="matrix(-0.7772 -0.6292 0.6292 -0.7772 6786.3232 3310.2666)" fill="#303030" width="9.859" height="107.077"/>
<rect x="3877.142" y="487.448" fill="#303030" width="73.73" height="9.276"/>
<path fill="#303030" d="M4010.693,359.694h-10.194c0-95.001-46.592-142.483-129.502-142.483c-82.911,0-114.69,81.678-114.69,176.679
	h-1.691c0-100.621,27.851-186.873,116.382-186.873S4010.693,259.073,4010.693,359.694z"/>
<g>
	<g>
		<path fill="#303030" d="M4027.099,410.623c0,5.63-4.564,10.194-10.194,10.194h-16.03c-5.63,0-10.194-4.564-10.194-10.194v-60.352
			c0-5.63,4.564-10.194,10.194-10.194h16.03c5.63,0,10.194,4.564,10.194,10.194V410.623z"/>
	</g>
</g>
<g>
	<circle fill="#303030" cx="3868.574" cy="492.086" r="15.291"/>
</g>
<polygon fill="#252926" points="3870.779,919.264 3870.587,915.331 3869.632,912.125 3866.049,919.264 "/>
<g>
	<g>
		<g>
			<polygon fill="#0E3757" points="3864.302,925.758 3869.032,925.758 3869.04,925.903 3905.418,925.903 3904.569,913.449 
				3904.365,910.452 3904.309,909.652 3902.32,880.47 3896.474,794.661 3896.474,794.656 3896.412,793.743 3889.642,693.305 
				3884.789,621.287 3851.948,621.287 3847.095,693.305 3840.775,787.001 3840.737,787.588 3840.708,788.019 3835.846,859.398 
				3832.372,910.452 3832.168,913.449 3831.319,925.903 3864.228,925.903 			"/>
		</g>
		<polygon fill="#0E3757" points="3864.302,925.957 3864.228,925.957 3869.04,925.957 3869.032,925.957 		"/>
	</g>
</g>
<path fill="#0E3757" d="M4078.114,628.373c-0.003-0.011-0.006-0.024-0.008-0.035c-0.076-0.409-0.1-0.446-0.13-0.66
	c-0.237-1.719-1.121-4.435-1.539-5.482c-8.399-9.402-89.208-44.677-135.575-46.675c0,0-0.005,0-0.014,0l-22.085,113.996
	l-17.967,92.749l-12.787,66.005v0.005l-14.849,55.112l-1.598,8.048l-3.677,7.327l-1.531-5.138l-1.662-3.174l-23.548-121.557
	l-0.369-1.894l-18.151-93.696l-25.962-118.345c-0.118,0.005-0.974,0.063-1.092,0.073c-8.242,0.383-13.737,2.098-23.541,4.389
	c-0.185,0.043-0.365,0.09-0.545,0.133c-2.163,0.511-4.351,1.06-6.557,1.643c-0.009,0-0.014,0.005-0.024,0.005
	c-43.896,11.599-94.307,36.402-100.84,43.712c0,0.002,0,0.003,0.001,0.005l-1.639,3.823l-78.086,297.161h93.336l1.399-4.406
	l38.663-106.294l18.159-46.232l0,0c1.662,13.204,2.917,29.585,3.835,47.557c1.344,26.299,1.984,56.006,2.164,84.152
	c0.057,8.602,0.071,17.054,0.051,25.222l124.971-0.143v0.143h133.105c-0.044-9.04-0.046-18.493,0.005-28.162v-0.005
	c0.142-28.046,0.729-57.881,2.017-84.507c0.881-18.206,2.092-34.909,3.716-48.515l17.972,45.755l38.663,106.294l2.734,9.14h93.604
	L4078.114,628.373z"/>
<path fill="#F5B400" d="M3869.079,918.735l-45.84-226.063l-25.821-118.405c-15.649,0-27.812,5.672-32.122,6.776l-6.892,88.452
	l24.147,8.313l-33.082,13.965L3869.079,918.735z"/>
<path fill="#F5B400" d="M3867.893,918.735l49.58-226.063l22.942-117.938c9.934,0.138,31.089,5.059,34.443,6.193l6.807,88.568
	l-23.908,8.313l32.754,13.965L3867.893,918.735z"/>
<path fill="#EDBE85" d="M2350.058,636.044c0,0-16.719-43.645-21.716-51.811c0,0,25.331-31.4,18.585-90.435
	c0,0,22.692-50.398,27.046-96.983c0,0,4.61-24.821-10.352-35.032c0,0-12.662-4.677-13.367,15.716c0,0,0.992,20.23-4.625,47.047
	c0,0-4.133,23.867-14.676,30.412c0,0-8.077,7.964-3.604-24.919c0,0,8.204-44.971,3.344-75.019
	c-4.734-29.269-19.687-48.166-19.687-48.166s-11.02-10.955-23.687-4.01c0,0-9.812,0.439,7.137,45.297
	c0,0,10.573,30.232,10.114,59.123c0,0-0.951,22.699-9.774,32.531c0,0-6.987,7.915-8.625-14.077c0,0-3.129-38.171-6.417-51.543
	c0,0-5.781-24.795-26.122-52.68c0,0-24.337-32.087-42.014-20.898c0,0-9.7,10.026,6.531,26.122c0,0,16.813,13.716,28.003,35.872
	c0,0,9.657,28.216,11.229,39.219c0.226,1.583,0.513,3.145,0.889,4.699c1.528,6.323,6.01,19.112,2.317,29.855
	c0,0-3.425,9.786-13.179-1.922c-6.388-7.669-14.984-13.217-24.665-15.646c-4.382-1.099-9.661-2.118-15.98-2.909
	c-27.506-3.445-50.579,17.904-50.579,17.904s-30.556,25.846-17.174,31.015c0,0,6.751,8.306,22.367,2.845
	c0,0,22.72-18.581,34.229-19.183c0,0,23.771-3.859,30.069,29.504s4.149,36.124-3.792,53.957c0,0-8.608,23.455-35.945,26.731
	c0,0-23.543,5.072-38.369-17.728c0,0-5.507-22.518-15.719-24.203c-10.212-1.685-19.483-0.877-23.433,17.302
	c0,0,4.126,32.673,26.821,55.559c20.453,20.624,55.85,21.022,80.754,23.458c5.447,0.533,10.918,0.734,16.388,0.561
	c4.703-0.148,11.076-0.296,18.471-0.328l7.909,49.945L2350.058,636.044z"/>
<polygon fill="#F5B400" points="1848.778,460.073 1855.903,482 1878.958,482 1860.306,495.435 1867.43,517.303 1848.778,503.722 
	1830.126,517.259 1837.251,495.442 1818.599,482 1841.654,482 "/>
<polygon fill="#F5B400" points="1918.71,460.073 1925.834,482 1948.889,482 1930.237,495.435 1937.362,517.303 1918.71,503.722 
	1900.058,517.259 1907.182,495.442 1888.53,482 1911.585,482 "/>
<polygon fill="#F5B400" points="1988.641,460.073 1995.766,482 2018.821,482 2000.169,495.435 2007.293,517.303 1988.641,503.722 
	1969.989,517.259 1977.114,495.442 1958.462,482 1981.517,482 "/>
<polygon fill="#F5B400" points="2058.573,460.073 2065.698,482 2088.753,482 2070.101,495.435 2077.225,517.303 2058.573,503.722 
	2039.921,517.259 2047.046,495.442 2028.393,482 2051.448,482 "/>
<polygon fill="#BCBCBC" points="2128.505,460.205 2135.629,482.132 2158.684,482.132 2140.032,495.501 2147.156,517.336 
	2128.505,503.739 2109.853,517.268 2116.977,495.512 2098.325,482.132 2121.38,482.132 "/>
<path fill="#0E3757" d="M2371.873,676.258c-25.397,35.432-57.374,65.825-94.14,89.413l-31.995-117.415
	c-1.656-6.052,1.952-12.354,8.003-14.01l88.303-24.063c6.061-1.647,12.363,1.961,14.01,8.012L2371.873,676.258z"/>
<path fill="#A0A0A0" d="M2361.117,658.912l-99.448,28.244c-6.421,1.824-13.167-1.938-14.99-8.359l-8.833-31.102
	c-1.824-6.421,1.938-13.167,8.359-14.991l99.448-28.244c6.421-1.824,13.167,1.938,14.99,8.359l8.833,31.102
	C2371.3,650.342,2367.538,657.088,2361.117,658.912z"/>
<path fill="#124263" d="M2261.669,687.156c-1.764,0.501-3.549,0.567-5.253,0.286l21.317,78.229
	c17.089-10.964,33.127-23.415,47.966-37.142l-15.527-55.149L2261.669,687.156z"/>
<path fill="#C4C4C4" d="M2295.917,622.752l-1.086-3.858l-48.627,13.81c-6.421,1.824-10.183,8.569-8.359,14.991l8.833,31.102
	c1.323,4.657,5.238,7.902,9.737,8.645c1.704,0.281,3.49,0.215,5.253-0.286l48.503-13.776L2295.917,622.752z"/>
<path fill="#397A77" d="M4387.785,3226.953c0,35.998-25.951,65.174-57.942,65.174h-301.297c-31.998,0-57.941-29.176-57.941-65.174
	V3014.89c0-30.312,146.681-111.524,193.045-136.437c8.704-4.677,18.744-4.871,27.005-0.509
	c46.008,24.296,197.131,106.424,197.131,136.946V3226.953z"/>
<path fill="#D8D8D8" d="M4321.687,2812.506h-57.384h-164.431h-57.385c-13.39,0-24.583,8.944-24.583,20.286v63.428v317.674
	c0,11.339,11.027,20.416,24.416,20.416l0.168-0.124h279.198l0,0.124c12.552,0,22.853-8.024,24.095-18.378
	c0.083-0.69,0.096-1.329,0.096-2.038V2896.22v-63.428C4345.877,2821.45,4335.076,2812.506,4321.687,2812.506z"/>
<rect x="4067.514" y="2858.67" fill="#3A3A3A" width="235.644" height="7.579"/>
<rect x="4067.514" y="2877.274" fill="#3A3A3A" width="163.986" height="7.579"/>
<rect x="4067.514" y="2896.566" fill="#3A3A3A" width="163.986" height="7.579"/>
<rect x="4067.514" y="2916.616" fill="#3A3A3A" width="223.242" height="7.579"/>
<rect x="4067.514" y="2935.909" fill="#3A3A3A" width="144.464" height="7.579"/>
<rect x="4067.514" y="2953.823" fill="#3A3A3A" width="189.94" height="7.579"/>
<rect x="4067.514" y="2970.98" fill="#3A3A3A" width="215.978" height="7.579"/>
<rect x="4067.513" y="2987.977" fill="#3A3A3A" width="168.81" height="7.579"/>
<rect x="4067.514" y="3005.236" fill="#3A3A3A" width="207.395" height="7.579"/>
<rect x="4067.514" y="3022.808" fill="#3A3A3A" width="223.242" height="7.579"/>
<rect x="4067.514" y="3042.1" fill="#3A3A3A" width="144.464" height="7.579"/>
<rect x="4067.514" y="3060.015" fill="#3A3A3A" width="189.94" height="7.579"/>
<rect x="4067.514" y="3077.171" fill="#3A3A3A" width="215.978" height="7.579"/>
<rect x="4067.513" y="3094.168" fill="#3A3A3A" width="168.81" height="7.579"/>
<rect x="4067.514" y="3111.427" fill="#3A3A3A" width="207.395" height="7.579"/>
<rect x="4067.514" y="3128.423" fill="#3A3A3A" width="207.395" height="7.579"/>
<rect x="4067.514" y="3147.891" fill="#221F1F" width="207.395" height="7.579"/>
<path opacity="0.2" fill="#221F1F" d="M4264.303,2817.003l9.43,80.884c0,0-1.398,10.6,9.759,11.275
	c11.155,0.675,62.445-12.596,62.445-12.596L4264.303,2817.003z"/>
<path fill="#898989" d="M4264.303,2812.598v72.692c0,0-1.397,10.601,9.76,11.276c11.155,0.676,71.874,0,71.874,0L4264.303,2812.598z
	"/>
<path fill="#4CA6A6" d="M4387.781,3017.638v212.667c-1.212,17.536-6.565,30.218-13.461,39.365
	c-16.286,21.623-41.235,23.632-41.235,23.632l-153.882-152.273L4387.781,3017.638z"/>
<path fill="#4CA6A6" d="M4179.202,3141.029l-153.885,152.273c0,0-24.965-2.01-41.252-23.632
	c-6.896-9.147-12.232-21.829-13.462-39.365v-212.667L4179.202,3141.029z"/>
<path fill="#397A77" d="M4374.319,3269.67c-16.286,21.623-41.235,23.632-41.235,23.632h-307.767c0,0-24.965-2.01-41.252-23.632
	l195.137-128.641L4374.319,3269.67z"/>
<path fill="#7A3A14" d="M1166.288,822.008c-0.029-0.683-0.044-1.37-0.044-2.06c0-31.179,29.589-56.455,66.087-56.455
	c36.501,0,66.089,25.276,66.089,56.455c0,0.69-0.015,1.377-0.044,2.06h24.041c0.02-0.684,0.031-1.37,0.031-2.06
	c0-42.517-40.347-76.983-90.118-76.983c-49.77,0-90.116,34.466-90.116,76.983c0,0.69,0.011,1.376,0.032,2.06H1166.288z"/>
<g>
	<g>
		<g>
			<path fill="#7A3A14" d="M1232.332,742.965c-49.198,0-89.188,33.482-90.116,75.084h15.11c-0.033-0.751-0.05-1.507-0.05-2.266
				c0-34.291,33.903-62.09,75.722-62.09c41.823,0,75.724,27.799,75.724,62.09c0,0.759-0.017,1.515-0.05,2.266h13.779
				C1321.522,776.447,1281.532,742.965,1232.332,742.965z"/>
		</g>
	</g>
</g>
<path fill="#C9521E" d="M1469.41,955.196v121.955c0,0.363-0.002,0.725-0.005,1.087c-0.021,2.455-0.114,4.895-0.278,7.316
	c-0.005,0.084-0.011,0.166-0.018,0.25c-4.478,64.54-58.68,115.96-124.31,115.96h-231.037c-64.296,0-117.623-49.35-123.977-112.042
	v-0.002c-0.419-4.136-0.634-8.329-0.634-12.569V955.196c0-68.535,56.075-124.611,124.612-124.611h231.037
	C1413.336,830.585,1469.41,886.661,1469.41,955.196z"/>
<path opacity="0.13" fill="#050505" d="M1469.358,1010.715v66.436c0,0.363,0.024,0.725,0.021,1.087
	c-0.021,2.455-0.101,4.895-0.265,7.316c-0.005,0.084,0,0.166-0.007,0.25c-238.53-92.049-478.188,3.48-479.314,3.917v-0.034h-0.012
	c-0.419-3.942-0.551-8.295-0.551-12.535v-87.882h-0.08l480.18,20.911L1469.358,1010.715z"/>
<path fill="#DC5921" d="M1423.244,1037.658h-389.349c-33.426,0-60.774-27.348-60.774-60.774v-97.92
	c0-33.426,27.348-60.774,60.774-60.774h389.349c33.426,0,60.774,27.348,60.774,60.774v97.92
	C1484.018,1010.31,1456.669,1037.658,1423.244,1037.658z"/>
<path fill="#7A3A14" d="M1118.987,1050.202v63.086c0,12.539-9.986,22.797-22.518,22.797c-12.539,0-22.525-10.258-22.525-22.797
	v-62.645c2.34,1.688,4.451,2.77,7.255,2.77h30.423C1114.668,1053.413,1117.232,1052.152,1118.987,1050.202z"/>
<path fill="#7A3A14" d="M1118.846,818.097v232.105c-1.327,1.95-4.178,3.496-7.223,3.496h-30.423c-2.804,0-4.828-1.367-7.483-3.055
	V818.097H1118.846z"/>
<path fill="#7A3A14" d="M1391.583,1049.713v63.575c0,12.539-10.282,22.797-22.814,22.797c-12.539,0-22.814-10.258-22.814-22.797
	v-62.245c1.755,1.447,4.108,2.371,6.685,2.371h30.423C1386.35,1053.413,1389.243,1051.952,1391.583,1049.713z"/>
<path fill="#7A3A14" d="M1391.612,818.097v231.616c-2.655,2.239-5.262,3.985-8.549,3.985h-30.423c-2.577,0-4.83-1.209-6.821-2.656
	V818.097H1391.612z"/>
<ellipse fill="#E89A54" cx="1096.831" cy="986.833" rx="7.196" ry="6.149"/>
<path fill="#E89A54" d="M1104.027,951.918c0,3.398-3.222,6.149-7.197,6.149c-3.972,0-7.195-2.752-7.195-6.149
	c0-3.399,3.223-6.15,7.195-6.15C1100.805,945.767,1104.027,948.518,1104.027,951.918z"/>
<ellipse fill="#E89A54" cx="1368.581" cy="986.866" rx="7.157" ry="6.117"/>
<ellipse fill="#E89A54" cx="1368.581" cy="952.191" rx="7.157" ry="6.117"/>
<path fill="#D37C27" d="M1119.302,1019.809c-2.031-1.951-4.827-3.276-7.867-3.276h-30.429c-2.801,0-5.34,1.146-7.318,2.838
	c-2.429,2.064-3.953,5.28-3.953,8.731v19.399c0,3.451,1.524,6.633,3.953,8.703c1.978,1.686,4.517,2.803,7.318,2.803h30.429
	c3.04,0,5.836-1.297,7.867-3.248c2.15-2.057,3.526-5.047,3.526-8.259v-19.399C1122.828,1024.89,1121.452,1021.866,1119.302,1019.809
	z M1114.864,1044.509c0,2.208-0.81,4.239-2.288,5.653c-1.396,1.342-3.183,2.209-5.272,2.209h-20.92
	c-1.926,0-3.808-0.744-5.167-1.903c-1.67-1.424-2.854-3.587-2.854-5.959v-13.337c0-2.373,1.184-4.608,2.854-6.027
	c1.36-1.164,3.242-1.975,5.167-1.975h20.92c2.09,0,3.876,0.935,5.272,2.276c1.478,1.414,2.288,3.517,2.288,5.726V1044.509z"/>
<path fill="#D37C27" d="M1391.601,1016.656c-2.031-1.951-4.63-3.441-7.67-3.441h-30.429c-2.801,0-5.537,1.311-7.515,3.003
	c-2.429,2.064-4.15,5.445-4.15,8.896v19.399c0,3.451,1.721,6.468,4.15,8.538c1.978,1.686,4.715,2.638,7.515,2.638h30.429
	c3.04,0,5.639-1.131,7.67-3.083c2.15-2.057,3.329-4.881,3.329-8.094v-19.399C1394.93,1021.902,1393.751,1018.713,1391.601,1016.656z
	 M1386.966,1041.521c0,2.208-0.613,4.074-2.091,5.488c-1.396,1.342-2.985,2.044-5.075,2.044h-20.92
	c-1.926,0-4.005-0.579-5.365-1.738c-1.67-1.424-3.051-3.422-3.051-5.794v-13.337c0-2.373,1.381-4.773,3.051-6.192
	c1.36-1.164,3.439-2.141,5.365-2.141h20.92c2.09,0,3.679,1.1,5.075,2.441c1.478,1.414,2.091,3.683,2.091,5.891V1041.521z"/>
<path fill="#E88929" d="M1169.757,818.049h-33.141c-1.176,0-2.138-0.962-2.138-2.138v-6.059c0-1.176,0.962-2.138,2.138-2.138h33.141
	c1.176,0,2.138,0.962,2.138,2.138v6.059C1171.895,817.087,1170.933,818.049,1169.757,818.049z"/>
<path fill="#E88929" d="M1326.912,818.049h-33.141c-1.176,0-2.138-0.962-2.138-2.138v-6.059c0-1.176,0.962-2.138,2.138-2.138h33.141
	c1.176,0,2.138,0.962,2.138,2.138v6.059C1329.05,817.087,1328.088,818.049,1326.912,818.049z"/>
<path fill="#EB5A49" d="M2520.265,2873.776c0,1.581-0.01,3.161-0.027,4.735c-0.064,4.732-0.211,9.443-0.45,14.128
	c-7.521,148.411-103.298,273.536-235.89,323.945c-1.396,0.53-2.795,1.053-4.198,1.567c-4.212,1.544-8.46,3.007-12.742,4.399
	c-1.426,0.463-2.859,0.92-4.295,1.366c-8.608,2.678-17.353,5.044-26.223,7.091c-2.957,0.685-5.927,1.329-8.91,1.94
	c-7.457,1.53-15.001,2.826-22.615,3.893c-1.524,0.215-3.047,0.416-4.578,0.614c-3.061,0.386-6.128,0.738-9.212,1.05
	c-1.54,0.158-3.081,0.306-4.628,0.443c-3.094,0.275-6.195,0.51-9.309,0.708c-7.786,0.49-15.635,0.741-23.545,0.741
	s-15.763-0.252-23.545-0.741c-3.114-0.198-6.219-0.433-9.313-0.708c-1.544-0.137-3.087-0.285-4.628-0.443
	c-3.081-0.312-6.151-0.664-9.209-1.05c-1.53-0.198-3.057-0.399-4.581-0.614c-7.615-1.067-15.155-2.363-22.612-3.893
	c-2.987-0.611-5.953-1.255-8.913-1.94c-8.866-2.047-17.612-4.413-26.226-7.091c-1.433-0.446-2.863-0.903-4.292-1.366
	c-4.282-1.393-8.531-2.856-12.742-4.399c-1.403-0.514-2.799-1.037-4.195-1.567c-132.595-50.409-228.369-175.534-235.893-323.945
	c-0.198-3.896-0.332-7.813-0.409-11.742c-0.013-0.792-0.027-1.591-0.037-2.386c-0.007-0.577-0.014-1.151-0.02-1.732
	c-0.007-1-0.01-2.004-0.01-3.004c0-4.356,0.077-8.695,0.228-13.014c0.047-1.359,0.101-2.715,0.164-4.071
	c0.027-0.597,0.054-1.188,0.084-1.782c0.158-3.124,0.356-6.239,0.591-9.343c0.121-1.551,0.248-3.101,0.386-4.648
	c0.275-3.091,0.587-6.175,0.936-9.242c0.352-3.071,0.742-6.128,1.168-9.178c0.638-4.567,1.362-9.108,2.168-13.622
	c7.135-39.949,20.75-77.652,39.704-111.997c0.628-1.141,1.262-2.279,1.906-3.409c7.494-13.246,15.786-25.975,24.817-38.126
	c0.51-0.688,1.023-1.369,1.534-2.054c8.534-11.316,17.702-22.125,27.461-32.371c0.064-0.067,0.131-0.138,0.195-0.205
	c13.125-13.752,27.307-26.485,42.412-38.069c6.994-5.359,14.182-10.477,21.562-15.333c7.376-4.856,14.937-9.45,22.672-13.772
	c2.577-1.443,5.175-2.853,7.792-4.232c2.614-1.383,5.252-2.732,7.903-4.051c1.755-0.873,3.52-1.725,5.289-2.567
	c3.171-1.513,6.37-2.983,9.591-4.406c0.829-0.369,1.658-0.731,2.49-1.091c2.316-1.003,4.645-1.99,6.987-2.947
	c2.762-1.128,5.537-2.222,8.329-3.282c1.396-0.534,2.792-1.054,4.195-1.567c1.769-0.648,3.537-1.275,5.316-1.893
	c2.467-0.859,4.94-1.698,7.427-2.507c1.43-0.463,2.859-0.919,4.292-1.366c2.873-0.893,5.759-1.752,8.655-2.574
	c7.252-2.057,14.595-3.9,22.018-5.517c2.97-0.648,5.953-1.259,8.95-1.832c2.997-0.574,6.004-1.111,9.027-1.611
	c4.531-0.752,9.091-1.42,13.682-2c3.057-0.389,6.128-0.742,9.209-1.057c1.54-0.155,3.084-0.299,4.628-0.436
	c3.094-0.275,6.198-0.514,9.313-0.712c7.782-0.493,15.635-0.745,23.545-0.745s15.759,0.252,23.545,0.745
	c3.114,0.198,6.215,0.437,9.309,0.712c1.547,0.137,3.091,0.282,4.628,0.436c3.084,0.315,6.151,0.668,9.212,1.057
	c4.584,0.58,9.148,1.248,13.679,2c3.024,0.5,6.034,1.037,9.031,1.611c2.993,0.574,5.98,1.185,8.947,1.832
	c7.427,1.617,14.766,3.46,22.015,5.517c2.899,0.822,5.789,1.681,8.655,2.574c1.436,0.447,2.869,0.903,4.295,1.366
	c2.487,0.809,4.963,1.648,7.43,2.507c1.775,0.617,3.547,1.245,5.312,1.893c1.403,0.514,2.802,1.034,4.198,1.567
	c2.792,1.06,5.567,2.154,8.323,3.282c2.346,0.957,4.675,1.943,6.994,2.947c0.829,0.359,1.658,0.721,2.487,1.091
	c3.222,1.423,6.42,2.893,9.595,4.406c1.768,0.843,3.534,1.698,5.285,2.567c2.655,1.319,5.289,2.668,7.903,4.051
	c2.618,1.379,5.215,2.789,7.792,4.232c7.735,4.322,15.3,8.917,22.676,13.772s14.568,9.974,21.558,15.333
	c15.108,11.584,29.29,24.317,42.412,38.069c0.067,0.067,0.131,0.138,0.195,0.205c9.759,10.246,18.927,21.055,27.461,32.371
	c0.513,0.685,1.027,1.366,1.537,2.054c9.028,12.152,17.32,24.881,24.817,38.126c0.638,1.131,1.275,2.269,1.906,3.409
	c18.951,34.344,32.566,72.048,39.7,111.997c0.806,4.514,1.531,9.054,2.171,13.625c0.426,3.047,0.812,6.104,1.165,9.175
	c0.352,3.067,0.664,6.151,0.94,9.242c0.137,1.547,0.265,3.097,0.383,4.648c0.235,3.104,0.433,6.219,0.591,9.343
	C2520.107,2861.158,2520.265,2867.447,2520.265,2873.776z"/>
<circle fill="#FFFFFF" cx="2153.642" cy="2873.774" r="305.014"/>
<circle fill="#EB5A49" cx="2153.642" cy="2873.774" r="241.549"/>
<circle fill="#FFFFFF" cx="2153.642" cy="2873.774" r="183.156"/>
<circle fill="#EB5A49" cx="2153.642" cy="2874.8" r="127.803"/>
<circle fill="#FFFFFF" cx="2153.642" cy="2870.773" r="61.356"/>
<path opacity="0.11" d="M2280.385,2891.67c-5.688,44.036-33.791,81.045-72.494,99.217l-91.636-71.098l0.013-0.02
	c10.346,7.964,23.306,12.695,37.375,12.695c33.885,0,61.356-27.468,61.356-61.356c0-19.602-9.195-37.059-23.505-48.295l0.054-0.07
	L2280.385,2891.67z"/>
<path opacity="0.11" d="M2395.526,2874.108c0,129.326-101.637,234.92-229.393,241.249l-122.809-95.284
	c30.74,23.344,69.078,37.194,110.654,37.194c101.153,0,183.155-82.001,183.155-183.158c0-55.852-25.001-105.869-64.423-139.458
	l118.077,91.613C2393.895,2841.727,2395.526,2857.728,2395.526,2874.108z"/>
<path opacity="0.11" d="M2520.265,2873.776c0,1.581-0.01,3.161-0.027,4.735c-0.064,4.732-0.211,9.443-0.45,14.128
	c-7.521,148.411-103.298,273.536-235.89,323.945c-1.396,0.53-2.795,1.053-4.198,1.567c-4.212,1.544-8.46,3.007-12.742,4.399
	c-1.426,0.463-2.859,0.92-4.295,1.366c-8.608,2.678-17.353,5.044-26.223,7.091c-2.957,0.685-5.927,1.329-8.91,1.94
	c-7.457,1.53-15.001,2.826-22.615,3.893c-1.524,0.215-3.047,0.416-4.578,0.614c-3.061,0.386-6.128,0.738-9.212,1.05
	c-1.54,0.158-3.081,0.306-4.628,0.443c-3.094,0.275-6.195,0.51-9.309,0.708c-7.786,0.49-15.635,0.741-23.545,0.741
	s-15.763-0.252-23.545-0.741c-1.181-0.074-2.359-0.155-3.534-0.242l-166.694-129.333l0.352-0.456
	c52.637,43.221,120,69.162,193.421,69.162c168.453,0,305.014-136.558,305.014-305.014c0-100.952-49.047-190.451-124.608-245.964
	l0.171-0.221l167.141,129.679c5.594,16.699,10.021,33.935,13.178,51.61c0.806,4.514,1.531,9.054,2.171,13.625
	c0.426,3.047,0.812,6.104,1.165,9.175c0.352,3.067,0.664,6.151,0.94,9.242c0.137,1.547,0.265,3.097,0.383,4.648
	c0.235,3.104,0.433,6.219,0.591,9.343C2520.107,2861.158,2520.265,2867.447,2520.265,2873.776z"/>
<g>
	<path fill="#7F4E2E" d="M2552.042,2404.937l0.1,70.774l70.011-0.421l-107.64,107.64l-54.556-1.345l-294.561,294.561
		c-3.729,3.729-9.831,3.729-13.56,0l-0.77-0.771c-3.729-3.729-3.729-9.831,0-13.56l294.706-294.706l-1.737-54.164L2552.042,2404.937
		z"/>
	<g>
		<path fill="#70432B" d="M2552.142,2475.711l70.011-0.421l-107.64,107.64l-54.556-1.345l-294.561,294.561
			c-3.729,3.729-9.831,3.729-13.56,0l-0.385-0.385l400.69-400.69L2552.142,2475.711z"/>
	</g>
</g>
<path fill="#F5B400" d="M3134.511,1320.182l-22.197,2.57l-5.771,0.671l-120.726,13.97c-1.957,0.227-3.916,0.352-5.845,0.366
	c-1.979,0.032-3.929-0.046-5.858-0.243c-25.671-2.416-47.055-22.492-50.142-49.143l-1.483-12.89
	c-3.071-26.509,12.978-50.822,37.201-59.178c1.834-0.622,3.707-1.17,5.632-1.603c2.01-0.471,4.077-0.831,6.177-1.069l120.346-13.926
	l5.77-0.67l22.561-2.608c30.621-3.542,58.316,18.404,61.849,49.01l1.494,12.895
	C3187.065,1288.944,3165.121,1316.637,3134.511,1320.182z"/>
<path fill="#FCD57E" d="M3348.6,1398.701c-60.117-34.711-163.861-50.389-240.901-57.443c-14.105-1.292-27.312-2.296-39.194-3.075
	c-0.535-0.032-1.07-0.064-1.599-0.1c-34.839-2.242-57.872-2.531-57.872-2.531l-6.821-60.195l-6.977-60.249
	c0,0,24.85-6.097,61.312-17.219c13.684-4.174,29.004-9.056,45.266-14.588c71.808-24.44,161.875-61.566,209.922-106.483
	l18.622,160.916l3.667,32.358L3348.6,1398.701z"/>
<path fill="#F5B400" d="M3013.688,1227.57l7.96,130.028l0.008,0.123l3.983,65.054l0.003,0.059l2.882,47.043
	c1.346,20.119-7.042,25.177-11.4,25.688l-27.783,4.478c-8.701,1.019-21.584,2.026-22.504-26.942l-1.209-43.235l-0.001-0.059
	l-0.588-21.066l-1.236-44.241l-0.004-0.124l-3.303-118.327c-1.122-5.009,2.007-10.458,6.983-12.189l35.172-12.219
	C3007.626,1219.914,3012.569,1222.566,3013.688,1227.57z"/>
<path fill="#FCD57E" d="M3082.191,1348.22c-1.692-0.274-3.665-0.502-5.9-0.665c-30.948-2.403-110.278,4.437-125.007,5.759
	c-0.719,0.064-1.281,0.114-1.687,0.151c-0.072-0.002-0.139-0.003-0.2,0.016c-0.316,0.017-0.478,0.035-0.478,0.035l-0.764-7.67
	l-3.227-32.553l-2.966-29.923l-8.457-60.581l-1.342-9.642c0,0,92.63-13.571,125.208-24.184c2.126-0.703,3.998-1.378,5.563-2.035
	l2.867,20.195l8.325,58.806l0.073-0.003l0.168,1.67l0.176,1.199l-0.059,0.005l4.866,50.196l1.151,11.843L3082.191,1348.22z"/>
<path fill="#E7A30F" d="M3372.467,1393.336c0.793,6.834-4.111,13.015-10.947,13.805l0,0c-6.831,0.794-13.013-4.106-13.804-10.94
	l-36.728-317.325c-0.791-6.834,4.11-13.016,10.947-13.807l0,0c6.832-0.791,13.014,4.109,13.807,10.942L3372.467,1393.336z"/>
<path fill="#F5B400" d="M3348.192,1398.466c-71.616-41.353-194.827-53.557-266.891-59.389l-5.24-38.936
	c0,0,158.409-35.882,257.05-30.112L3348.192,1398.466z"/>
<path fill="#F5B400" d="M3082.191,1348.22c-1.692-0.274-3.665-0.502-5.9-0.665c-30.948-2.403-110.278,4.437-125.007,5.759
	c-0.719,0.064-1.281,0.114-1.687,0.151c-0.072-0.002-0.139-0.003-0.2,0.016c-0.316,0.017-0.478,0.035-0.478,0.035l-0.764-7.67
	c0,0-1.69-17.05-2.59-26.123s130.497-19.581,130.497-19.581l3.288,18.854l1.151,11.843L3082.191,1348.22z"/>
<path fill="#E7A30F" d="M3123.478,1342.882c-14.105-1.292-30.293-3.026-42.176-3.805l-17.144-143.532
	c13.684-4.174,21.393-6.713,37.655-12.245C3085.255,1290.842,3122.847,1339.548,3123.478,1342.882z"/>
<path fill="#DDDDDD" d="M596.755,3032.452h306.491c0,0,34.387,7.991,30.4,40.883l0.322,430.601H698.42
	c0,0,6.479,35.955-32.892,37.948c0,0-28.78,2.528-35.508-32.98l-1.371-439.625C628.65,3069.279,631.141,3041.977,596.755,3032.452z"
	/>
<path fill="#B3B2B3" d="M666.276,3541.912l288.866-0.314c0,0,30.105-8.135,25.164-37.662H695.921
	C695.921,3503.936,701.666,3539.517,666.276,3541.912z"/>
<path fill="#B3B2B3" d="M628.663,3067.695h-68.897c0-20.002,15.43-34.48,34.448-34.48
	C613.234,3033.214,628.663,3051.502,628.663,3067.695z"/>
<rect x="679.121" y="3096.29" opacity="0.8" fill="#2F363E" width="208.754" height="26.384"/>
<rect x="679.121" y="3145.573" opacity="0.8" fill="#2F363E" width="208.754" height="26.384"/>
<rect x="679.121" y="3198.213" opacity="0.8" fill="#2F363E" width="208.754" height="26.384"/>
<rect x="679.121" y="3250.854" opacity="0.8" fill="#2F363E" width="208.754" height="26.384"/>
<rect x="679.121" y="3303.494" opacity="0.8" fill="#2F363E" width="208.754" height="26.384"/>
<g>
	<rect x="676.414" y="3432.396" opacity="0.8" fill="#2F363E" width="11.065" height="31.003"/>
	<rect x="692.444" y="3422.3" opacity="0.8" fill="#2F363E" width="11.065" height="41.099"/>
	<rect x="740.531" y="3422.3" opacity="0.8" fill="#2F363E" width="11.065" height="41.099"/>
	<rect x="708.473" y="3382.918" opacity="0.8" fill="#2F363E" width="11.065" height="80.48"/>
	<rect x="724.502" y="3399.297" opacity="0.8" fill="#2F363E" width="11.065" height="64.102"/>
	<rect x="756.56" y="3371.49" opacity="0.8" fill="#2F363E" width="11.065" height="91.909"/>
</g>
<g opacity="0.8">
	<path fill="#2F363E" d="M970.59,3267.743c-0.517,0-0.559,0.087-1.004,0.241c1.282,0.444,2.627,1.457,2.627,2.636v74.033
		c0,1.18-1.294,2.192-2.576,2.636c0.445,0.154,0.635,0.241,1.151,0.241c2.005,0,3.329-1.288,3.329-2.877v-74.033
		C974.118,3269.031,972.595,3267.743,970.59,3267.743z"/>
</g>
<path fill="#EB5A49" d="M969.693,3294.989v164.992c0,12.73-5.036,23.05-11.247,23.05c-6.212,0-11.247-10.32-11.247-23.05v-164.992
	H969.693z"/>
<path fill="#EB5A49" d="M947.199,3337.806v-80.505c0-6.211,5.036-11.247,11.247-11.247c6.211,0,11.247,5.036,11.247,11.247v80.505
	H947.199z"/>
<path opacity="0.8" fill="#2F363E" d="M947.199,3257.302v7.896h22.494v-7.896c0-6.216-5.032-11.247-11.247-11.247
	c-3.102,0-5.92,1.255-7.956,3.291C948.454,3251.382,947.199,3254.199,947.199,3257.302z"/>
<rect x="947.199" y="3330.703" opacity="0.8" fill="#2F363E" width="22.494" height="8.287"/>
</svg>